G04 DipTrace 2.3.0.3*
%INBottom.gbr*%
%MOMM*%
%ADD13C,0.5*%
%ADD15C,1.0*%
%ADD17C,0.33*%
%ADD19C,0.635*%
%ADD24R,3.3X3.3*%
%ADD25C,3.3*%
%ADD27R,2.4X2.4*%
%ADD28C,2.4*%
%ADD29C,1.778*%
%ADD30C,1.778*%
%ADD31C,3.5*%
%ADD32C,3.5*%
%ADD34R,13.0X13.0*%
%ADD35C,3.0*%
%ADD39C,1.016*%
%FSLAX53Y53*%
G04*
G71*
G90*
G75*
G01*
%LNBottom*%
%LPD*%
X95330Y47705D2*
D13*
Y23575D1*
X95410Y23495D1*
X97790Y68580D2*
Y54610D1*
X95250Y52070D1*
Y47785D1*
X95330Y47705D1*
X148803Y75883D2*
Y80645D1*
X134938D1*
X132398Y78105D1*
Y75883D1*
X132293D1*
X101918D1*
X97790Y71755D1*
Y68580D1*
X147320Y45085D2*
Y55880D1*
X148273Y56832D1*
Y61595D1*
Y68898D1*
X148908Y69533D1*
Y75778D1*
X148803Y75883D1*
X171133Y44450D2*
X173990D1*
X171133D2*
Y40005D1*
Y37783D1*
X168953Y35603D1*
X168910Y35560D1*
X165735D1*
X185420Y38100D2*
X171450D1*
X171133Y37783D1*
X161925Y26352D2*
X170627D1*
X172720D1*
X174308Y27940D1*
X170627Y26352D2*
Y33928D1*
X168953Y35603D1*
X179070Y40005D2*
X171133D1*
X165735Y35560D2*
D15*
Y34925D1*
X151447D1*
D13*
X147320Y39053D1*
Y45085D1*
X146050Y61595D2*
D17*
X148273D1*
X137742Y75883D2*
Y63447D1*
X135890Y61595D1*
X140970D1*
Y55245D1*
X156580Y55615D2*
X156210Y55245D1*
Y61595D1*
X151130D1*
X154253Y75883D2*
Y63553D1*
X156210Y61595D1*
D39*
X147320Y45085D3*
X165735Y35560D3*
X173990Y44450D3*
X171133D3*
X161925Y26352D3*
X174308Y27940D3*
X179070Y40005D3*
X135452Y76838D2*
D19*
X140594D1*
X135314Y76207D2*
X140594D1*
X135314Y75575D2*
X140594D1*
X135314Y74943D2*
X140594D1*
X135314Y74312D2*
X140594D1*
X135314Y73680D2*
X140594D1*
X134837Y73048D2*
X140594D1*
X134366Y72417D2*
X140594D1*
X134366Y71785D2*
X140594D1*
X134366Y71153D2*
X140594D1*
X134366Y70522D2*
X140594D1*
X134366Y69890D2*
X140594D1*
X134366Y69258D2*
X140594D1*
X134366Y68627D2*
X140594D1*
X134366Y67995D2*
X140594D1*
X134366Y67363D2*
X140594D1*
X134366Y66732D2*
X140594D1*
X134366Y66100D2*
X140594D1*
X134366Y65468D2*
X140713D1*
X134366Y64837D2*
X141348D1*
X134366Y64205D2*
X141973D1*
X134366Y63573D2*
X142499D1*
X134366Y62942D2*
X142499D1*
X134366Y62310D2*
X142499D1*
X134366Y61678D2*
X142499D1*
X134366Y61047D2*
X142499D1*
X134366Y60415D2*
X142499D1*
X134366Y59783D2*
X142499D1*
X134366Y59152D2*
X142499D1*
X134366Y58520D2*
X142499D1*
X134366Y57888D2*
X142499D1*
X134366Y57257D2*
X142499D1*
X134366Y56625D2*
X142499D1*
X134366Y55993D2*
X142499D1*
X134366Y55362D2*
X142499D1*
X134366Y54730D2*
X142499D1*
X134303Y59055D2*
Y54293D1*
X142558D1*
Y63688D1*
X140743Y65507D1*
X140653Y65722D1*
Y77470D1*
X136019D1*
X135252Y76700D1*
X135250Y73652D1*
X135162Y73436D1*
X134299Y72573D1*
X134303Y59372D1*
Y59055D1*
X152141Y76838D2*
X156786D1*
X152141Y76207D2*
X156786D1*
X152141Y75575D2*
X156786D1*
X152141Y74943D2*
X156786D1*
X152141Y74312D2*
X156786D1*
X152141Y73680D2*
X156786D1*
X152141Y73048D2*
X156786D1*
X152141Y72417D2*
X156786D1*
X152141Y71785D2*
X156786D1*
X152141Y71153D2*
X156786D1*
X152141Y70522D2*
X156786D1*
X151685Y69890D2*
X156786D1*
X151050Y69258D2*
X156786D1*
X150415Y68627D2*
X156786D1*
X149790Y67995D2*
X156786D1*
X149606Y67363D2*
X156786D1*
X149606Y66732D2*
X156786D1*
X149606Y66100D2*
X156786D1*
X149606Y65468D2*
X156786D1*
X149606Y64837D2*
X156906D1*
X149606Y64205D2*
X157531D1*
X149606Y63573D2*
X158166D1*
X149606Y62942D2*
X158374D1*
X149606Y62310D2*
X158374D1*
X149606Y61678D2*
X158374D1*
X149606Y61047D2*
X158374D1*
X149606Y60415D2*
X158374D1*
X149606Y59783D2*
X158374D1*
X149606Y59152D2*
X158374D1*
X149641Y58520D2*
X158374D1*
X150266Y57888D2*
X158374D1*
X150901Y57257D2*
X158374D1*
X151536Y56625D2*
X158374D1*
X152161Y55993D2*
X158374D1*
X152796Y55362D2*
X158374D1*
X153431Y54730D2*
X158374D1*
X156528Y77470D2*
X152082D1*
X152078Y70477D1*
X151990Y70260D1*
X149541Y67812D1*
X149543Y58549D1*
X153799Y54295D1*
X158433Y54293D1*
Y63371D1*
X156935Y64872D1*
X156845Y65087D1*
Y77470D1*
X156528D1*
X134044Y84141D2*
X150754D1*
X134044Y83509D2*
X150754D1*
X134044Y82878D2*
X150754D1*
X134044Y82246D2*
X150754D1*
X134044Y81614D2*
X150754D1*
X134044Y80982D2*
X150754D1*
X134044Y80351D2*
X150754D1*
X92774Y79719D2*
X150754D1*
X92774Y79087D2*
X150754D1*
X92774Y78456D2*
X135316D1*
X141544D2*
X150754D1*
X92774Y77824D2*
X134671D1*
X145295D2*
X150754D1*
X92774Y77192D2*
X134115D1*
X145295D2*
X150754D1*
X92774Y76561D2*
X134036D1*
X145295D2*
X150754D1*
X92774Y75929D2*
X134036D1*
X145295D2*
X150754D1*
X92774Y75298D2*
X134036D1*
X145295D2*
X150754D1*
X92774Y74666D2*
X134036D1*
X145295D2*
X150754D1*
X92774Y74034D2*
X134036D1*
X145295D2*
X150754D1*
X92774Y73403D2*
X133420D1*
X141872D2*
X150754D1*
X92774Y72771D2*
X133083D1*
X141872D2*
X150754D1*
X92774Y72139D2*
X133083D1*
X141872D2*
X150754D1*
X92774Y71508D2*
X133083D1*
X141872D2*
X150754D1*
X92774Y70876D2*
X102345D1*
X103395D2*
X133083D1*
X141872D2*
X150377D1*
X92774Y70244D2*
X101154D1*
X104586D2*
X133083D1*
X141872D2*
X149742D1*
X92774Y69612D2*
X100708D1*
X105032D2*
X133083D1*
X141872D2*
X149107D1*
X92774Y68981D2*
X100500D1*
X105240D2*
X133083D1*
X141872D2*
X148482D1*
X92774Y68349D2*
X100480D1*
X105260D2*
X133083D1*
X141872D2*
X148214D1*
X92774Y67717D2*
X100629D1*
X105111D2*
X133083D1*
X141872D2*
X148214D1*
X92774Y67086D2*
X101006D1*
X104734D2*
X133083D1*
X141872D2*
X148214D1*
X92774Y66454D2*
X101819D1*
X103921D2*
X133083D1*
X141872D2*
X148214D1*
X92774Y65822D2*
X133083D1*
X142130D2*
X148214D1*
X92774Y65191D2*
X133083D1*
X142755D2*
X148214D1*
X92774Y64559D2*
X133083D1*
X143390D2*
X148214D1*
X92774Y63928D2*
X119450D1*
X121850D2*
X124530D1*
X126930D2*
X129610D1*
X132010D2*
X133083D1*
X143777D2*
X148214D1*
X92774Y63296D2*
X118627D1*
X122673D2*
X123707D1*
X127753D2*
X128787D1*
X132833D2*
X133078D1*
X143777D2*
X148214D1*
X92774Y62664D2*
X118220D1*
X123080D2*
X123298D1*
X128160D2*
X128378D1*
X143777D2*
X148214D1*
X92774Y62033D2*
X118032D1*
X143777D2*
X148214D1*
X92774Y61401D2*
X118002D1*
X143777D2*
X148214D1*
X92774Y60769D2*
X118131D1*
X143777D2*
X148214D1*
X92774Y60138D2*
X118438D1*
X122862D2*
X123518D1*
X127942D2*
X128598D1*
X143777D2*
X148214D1*
X92774Y59506D2*
X119054D1*
X122246D2*
X124134D1*
X127326D2*
X129214D1*
X132406D2*
X133083D1*
X143777D2*
X148214D1*
X92774Y58874D2*
X133083D1*
X143777D2*
X148214D1*
X92774Y58242D2*
X133083D1*
X143777D2*
X148214D1*
X92774Y57611D2*
X133083D1*
X143777D2*
X148571D1*
X92774Y56979D2*
X133083D1*
X143777D2*
X149196D1*
X92774Y56347D2*
X133083D1*
X143777D2*
X149831D1*
X92774Y55716D2*
X133083D1*
X143777D2*
X150466D1*
X92774Y55084D2*
X133083D1*
X143777D2*
X151091D1*
X92774Y54452D2*
X133083D1*
X143777D2*
X151726D1*
X92774Y53821D2*
X133093D1*
X143767D2*
X152361D1*
X92774Y53189D2*
X133619D1*
X143241D2*
X152986D1*
X92774Y52558D2*
X158369D1*
X92774Y51926D2*
X158369D1*
X92774Y51294D2*
X158369D1*
X92774Y50663D2*
X158369D1*
X92774Y50031D2*
X102772D1*
X107889D2*
X158369D1*
X92774Y49399D2*
X102772D1*
X107889D2*
X158369D1*
X92774Y48768D2*
X102772D1*
X107889D2*
X158369D1*
X92774Y48136D2*
X102772D1*
X107889D2*
X158369D1*
X92774Y47504D2*
X102772D1*
X107889D2*
X158369D1*
X92774Y46872D2*
X102772D1*
X107889D2*
X158369D1*
X92774Y46241D2*
X102772D1*
X107889D2*
X158369D1*
X92774Y45609D2*
X102772D1*
X107889D2*
X158369D1*
X92774Y44977D2*
X158369D1*
X92774Y44346D2*
X158369D1*
X92774Y43714D2*
X158369D1*
X92774Y43082D2*
X158369D1*
X92774Y42451D2*
X158369D1*
X92774Y41819D2*
X158369D1*
X92774Y41188D2*
X158369D1*
X92774Y40556D2*
X158369D1*
X92774Y39924D2*
X158369D1*
X92774Y39293D2*
X158369D1*
X92774Y38661D2*
X139651D1*
X142289D2*
X154891D1*
X157529D2*
X158369D1*
X92774Y38029D2*
X139274D1*
X142666D2*
X154514D1*
X157906D2*
X158369D1*
X92774Y37398D2*
X139175D1*
X142765D2*
X154415D1*
X158005D2*
X158369D1*
X92774Y36766D2*
X139324D1*
X142616D2*
X154564D1*
X157856D2*
X158369D1*
X92774Y36134D2*
X139800D1*
X142140D2*
X155040D1*
X157380D2*
X158369D1*
X92774Y35503D2*
X158369D1*
X92774Y34871D2*
X158369D1*
X92774Y34239D2*
X158369D1*
X92774Y33607D2*
X158369D1*
X92774Y32976D2*
X158369D1*
X92774Y32344D2*
X158369D1*
X92774Y31712D2*
X158369D1*
X92774Y31081D2*
X158369D1*
X92774Y30449D2*
X158369D1*
X92774Y29817D2*
X158369D1*
X92774Y29186D2*
X158369D1*
X92774Y28554D2*
X158369D1*
X92774Y27923D2*
X158369D1*
X92774Y27291D2*
X158369D1*
X92774Y26659D2*
X158369D1*
X92774Y26028D2*
X158369D1*
X92774Y25396D2*
X102851D1*
X107969D2*
X158369D1*
X92774Y24764D2*
X102851D1*
X107969D2*
X158369D1*
X92774Y24133D2*
X102851D1*
X107969D2*
X158369D1*
X92774Y23501D2*
X102851D1*
X107969D2*
X158369D1*
X92774Y22869D2*
X102851D1*
X107969D2*
X158369D1*
X92774Y22237D2*
X102851D1*
X107969D2*
X158369D1*
X92774Y21606D2*
X102851D1*
X107969D2*
X158369D1*
X92774Y20974D2*
X158369D1*
X92774Y20342D2*
X158369D1*
X92774Y19711D2*
X158369D1*
X123189Y61093D2*
X123070Y60664D1*
X122938Y60375D1*
X122772Y60105D1*
X122574Y59857D1*
X122347Y59635D1*
X122095Y59442D1*
X121821Y59282D1*
X121530Y59156D1*
X121226Y59067D1*
X120912Y59015D1*
X120595Y59003D1*
X120279Y59029D1*
X119969Y59093D1*
X119668Y59195D1*
X119382Y59333D1*
X119115Y59505D1*
X118872Y59708D1*
X118655Y59939D1*
X118467Y60195D1*
X118313Y60473D1*
X118193Y60766D1*
X118110Y61073D1*
X118065Y61387D1*
X118059Y61704D1*
X118092Y62020D1*
X118163Y62329D1*
X118271Y62627D1*
X118415Y62910D1*
X118593Y63173D1*
X118801Y63413D1*
X119037Y63625D1*
X119297Y63807D1*
X119577Y63955D1*
X119873Y64069D1*
X120181Y64145D1*
X120496Y64183D1*
X120814D1*
X121129Y64143D1*
X121436Y64066D1*
X121732Y63951D1*
X122012Y63802D1*
X122271Y63619D1*
X122506Y63405D1*
X122713Y63165D1*
X122890Y62901D1*
X123033Y62618D1*
X123140Y62319D1*
X123190Y62097D1*
X123243Y62329D1*
X123351Y62627D1*
X123495Y62910D1*
X123673Y63173D1*
X123881Y63413D1*
X124117Y63625D1*
X124377Y63807D1*
X124657Y63955D1*
X124953Y64069D1*
X125261Y64145D1*
X125576Y64183D1*
X125894D1*
X126208Y64143D1*
X126516Y64066D1*
X126812Y63951D1*
X127092Y63802D1*
X127351Y63619D1*
X127586Y63405D1*
X127793Y63165D1*
X127970Y62901D1*
X128113Y62618D1*
X128220Y62319D1*
X128270Y62097D1*
X128323Y62329D1*
X128431Y62627D1*
X128575Y62910D1*
X128753Y63173D1*
X128961Y63413D1*
X129197Y63625D1*
X129457Y63807D1*
X129737Y63955D1*
X130033Y64069D1*
X130341Y64145D1*
X130656Y64183D1*
X130974D1*
X131288Y64143D1*
X131596Y64066D1*
X131892Y63951D1*
X132172Y63802D1*
X132431Y63619D1*
X132666Y63405D1*
X132873Y63165D1*
X133143Y62715D1*
X133142Y72707D1*
X133201Y73018D1*
X133389Y73304D1*
X134098Y74012D1*
X134095Y76835D1*
X134154Y77145D1*
X134341Y77431D1*
X135294Y78384D1*
X135555Y78561D1*
X135890Y78630D1*
X140970D1*
X141280Y78571D1*
X141547Y78402D1*
X141735Y78138D1*
X141711Y78186D1*
X142102Y77925D1*
X145235D1*
Y73840D1*
X141812D1*
X141813Y66070D1*
X143471Y64414D1*
X143648Y64153D1*
X143718Y63817D1*
Y53975D1*
X143659Y53665D1*
X143490Y53398D1*
X143235Y53213D1*
X142875Y53132D1*
X133985D1*
X133675Y53191D1*
X133408Y53360D1*
X133223Y53615D1*
X133142Y53975D1*
Y60454D1*
X132932Y60105D1*
X132734Y59857D1*
X132507Y59635D1*
X132255Y59442D1*
X131981Y59282D1*
X131690Y59156D1*
X131386Y59067D1*
X131072Y59015D1*
X130755Y59003D1*
X130439Y59029D1*
X130129Y59093D1*
X129828Y59195D1*
X129542Y59333D1*
X129275Y59505D1*
X129032Y59708D1*
X128815Y59939D1*
X128627Y60195D1*
X128473Y60473D1*
X128353Y60766D1*
X128269Y61083D1*
X128150Y60664D1*
X128018Y60375D1*
X127852Y60105D1*
X127654Y59857D1*
X127427Y59635D1*
X127175Y59442D1*
X126901Y59282D1*
X126610Y59156D1*
X126306Y59067D1*
X125992Y59015D1*
X125675Y59003D1*
X125359Y59029D1*
X125049Y59093D1*
X124748Y59195D1*
X124462Y59333D1*
X124196Y59505D1*
X123952Y59708D1*
X123735Y59939D1*
X123547Y60195D1*
X123393Y60473D1*
X123273Y60766D1*
X123189Y61083D1*
X103235Y25988D2*
X107903D1*
Y21002D1*
X102917D1*
Y25988D1*
X103235D1*
X105191Y68263D2*
X105127Y67953D1*
X105022Y67654D1*
X104877Y67371D1*
X104695Y67111D1*
X104480Y66878D1*
X104235Y66676D1*
X103966Y66509D1*
X103676Y66380D1*
X103371Y66291D1*
X103058Y66245D1*
X102740Y66241D1*
X102425Y66280D1*
X102119Y66361D1*
X101826Y66483D1*
X101552Y66643D1*
X101302Y66839D1*
X101082Y67067D1*
X100893Y67322D1*
X100742Y67601D1*
X100629Y67897D1*
X100557Y68206D1*
X100528Y68522D1*
X100541Y68839D1*
X100598Y69151D1*
X100696Y69453D1*
X100834Y69739D1*
X101009Y70003D1*
X101218Y70242D1*
X101458Y70449D1*
X101723Y70623D1*
X102010Y70759D1*
X102312Y70856D1*
X102625Y70910D1*
X102942Y70922D1*
X103258Y70891D1*
X103566Y70817D1*
X103862Y70703D1*
X104140Y70549D1*
X104394Y70359D1*
X104620Y70137D1*
X104815Y69886D1*
X104973Y69612D1*
X105094Y69318D1*
X105173Y69011D1*
X105213Y68580D1*
X105191Y68263D1*
X142673Y37149D2*
X142587Y36844D1*
X142447Y36560D1*
X142257Y36306D1*
X142024Y36091D1*
X141756Y35922D1*
X141461Y35804D1*
X141150Y35742D1*
X140833Y35739D1*
X140521Y35792D1*
X140223Y35902D1*
X139951Y36065D1*
X139713Y36274D1*
X139517Y36523D1*
X139369Y36804D1*
X139276Y37107D1*
X139239Y37422D1*
X139260Y37738D1*
X139338Y38045D1*
X139471Y38333D1*
X139655Y38592D1*
X139882Y38812D1*
X140146Y38988D1*
X140437Y39113D1*
X140747Y39182D1*
X141064Y39194D1*
X141377Y39148D1*
X141677Y39046D1*
X141954Y38890D1*
X142197Y38687D1*
X142399Y38443D1*
X142554Y38166D1*
X142655Y37866D1*
X142702Y37465D1*
X142673Y37149D1*
X157913D2*
X157827Y36844D1*
X157687Y36560D1*
X157497Y36306D1*
X157264Y36091D1*
X156996Y35922D1*
X156701Y35804D1*
X156390Y35742D1*
X156073Y35739D1*
X155761Y35792D1*
X155463Y35902D1*
X155191Y36065D1*
X154953Y36274D1*
X154757Y36523D1*
X154609Y36804D1*
X154516Y37107D1*
X154479Y37422D1*
X154500Y37738D1*
X154578Y38045D1*
X154711Y38333D1*
X154895Y38592D1*
X155122Y38812D1*
X155386Y38988D1*
X155677Y39113D1*
X155987Y39182D1*
X156304Y39194D1*
X156617Y39148D1*
X156917Y39046D1*
X157194Y38890D1*
X157437Y38687D1*
X157639Y38443D1*
X157794Y38166D1*
X157895Y37866D1*
X157942Y37465D1*
X157913Y37149D1*
X103155Y50198D2*
X107823D1*
Y45212D1*
X102837D1*
Y50198D1*
X103155D1*
X93028Y19685D2*
X158433D1*
Y53023D1*
X153344Y53027D1*
X153128Y53115D1*
X148363Y57887D1*
X148273Y58102D1*
X148277Y68588D1*
X148365Y68804D1*
X150814Y71253D1*
X150812Y84773D1*
X133985D1*
Y80327D1*
X133956Y80195D1*
X133712Y80013D1*
X101600Y80010D1*
X92710D1*
Y19685D1*
X93028D1*
X159766Y57788D2*
X187579D1*
X159766Y57157D2*
X187579D1*
X159766Y56525D2*
X187579D1*
X159766Y55893D2*
X187579D1*
X159766Y55262D2*
X187579D1*
X159766Y54630D2*
X187579D1*
X159766Y53998D2*
X187579D1*
X159766Y53367D2*
X187579D1*
X159766Y52735D2*
X187579D1*
X159766Y52103D2*
X187579D1*
X159766Y51472D2*
X187579D1*
X159766Y50840D2*
X187579D1*
X159766Y50208D2*
X187579D1*
X159766Y49577D2*
X187579D1*
X159766Y48945D2*
X187579D1*
X159766Y48313D2*
X187579D1*
X159766Y47682D2*
X187579D1*
X159766Y47050D2*
X187579D1*
X159766Y46418D2*
X187579D1*
X159766Y45787D2*
X187579D1*
X159766Y45155D2*
X187579D1*
X159766Y44523D2*
X187579D1*
X159766Y43892D2*
X187579D1*
X159766Y43260D2*
X187579D1*
X159766Y42628D2*
X187579D1*
X159766Y41997D2*
X187579D1*
X159766Y41365D2*
X187579D1*
X159766Y40733D2*
X187579D1*
X159766Y40102D2*
X187579D1*
X159766Y39470D2*
X187579D1*
X159766Y38838D2*
X187579D1*
X159766Y38207D2*
X187579D1*
X159766Y37575D2*
X187579D1*
X159766Y36943D2*
X187579D1*
X159766Y36312D2*
X187579D1*
X159766Y35680D2*
X187579D1*
X159766Y35048D2*
X184032D1*
X186808D2*
X187579D1*
X159766Y34417D2*
X183377D1*
X159766Y33785D2*
X183060D1*
X159766Y33153D2*
X182941D1*
X159766Y32522D2*
X182990D1*
X159766Y31890D2*
X183218D1*
X159766Y31258D2*
X183695D1*
X187145D2*
X187579D1*
X159766Y30627D2*
X184984D1*
X185856D2*
X187579D1*
X159766Y29995D2*
X184072D1*
X186768D2*
X187579D1*
X159766Y29363D2*
X183397D1*
X159766Y28732D2*
X183069D1*
X159766Y28100D2*
X182941D1*
X159766Y27468D2*
X182980D1*
X159766Y26837D2*
X183198D1*
X159766Y26205D2*
X183665D1*
X187175D2*
X187579D1*
X159766Y25573D2*
X184836D1*
X186004D2*
X187579D1*
X159766Y24942D2*
X187579D1*
X159766Y24310D2*
X187579D1*
X159766Y23678D2*
X187579D1*
X159766Y23047D2*
X187579D1*
X159766Y22415D2*
X187579D1*
X159766Y21783D2*
X187579D1*
X159766Y21152D2*
X187579D1*
X159766Y20520D2*
X187579D1*
X159766Y19888D2*
X187579D1*
X187645Y32065D2*
X187518Y31807D1*
X187341Y31544D1*
X187132Y31305D1*
X186893Y31096D1*
X186629Y30920D1*
X186344Y30780D1*
X186044Y30679D1*
X185732Y30617D1*
X185416Y30597D1*
X185099Y30618D1*
X184788Y30681D1*
X184488Y30784D1*
X184204Y30924D1*
X183940Y31101D1*
X183702Y31311D1*
X183494Y31550D1*
X183318Y31814D1*
X183179Y32099D1*
X183078Y32400D1*
X183017Y32712D1*
X182997Y33028D1*
X183019Y33345D1*
X183082Y33656D1*
X183185Y33956D1*
X183327Y34240D1*
X183504Y34503D1*
X183714Y34740D1*
X183953Y34949D1*
X184218Y35124D1*
X184503Y35263D1*
X184804Y35363D1*
X185116Y35424D1*
X185432Y35443D1*
X185749Y35420D1*
X186060Y35357D1*
X186360Y35253D1*
X186643Y35111D1*
X186906Y34934D1*
X187143Y34723D1*
X187351Y34483D1*
X187526Y34218D1*
X187643Y33978D1*
Y58420D1*
X159702D1*
Y19685D1*
X187643D1*
Y26978D1*
X187518Y26727D1*
X187341Y26464D1*
X187132Y26225D1*
X186893Y26016D1*
X186629Y25840D1*
X186344Y25700D1*
X186044Y25599D1*
X185732Y25537D1*
X185416Y25517D1*
X185099Y25538D1*
X184788Y25601D1*
X184488Y25703D1*
X184204Y25844D1*
X183940Y26021D1*
X183702Y26231D1*
X183494Y26470D1*
X183318Y26735D1*
X183179Y27019D1*
X183078Y27320D1*
X183017Y27632D1*
X182997Y27948D1*
X183019Y28265D1*
X183082Y28576D1*
X183185Y28876D1*
X183327Y29160D1*
X183504Y29423D1*
X183714Y29660D1*
X183953Y29869D1*
X184218Y30044D1*
X184503Y30183D1*
X184804Y30283D1*
X185116Y30344D1*
X185432Y30363D1*
X185749Y30340D1*
X186060Y30277D1*
X186360Y30173D1*
X186643Y30031D1*
X186906Y29854D1*
X187143Y29643D1*
X187351Y29403D1*
X187526Y29138D1*
X187643Y28898D1*
Y32058D1*
D24*
X105410Y23495D3*
D25*
X95410D3*
D24*
X105330Y47705D3*
D25*
X95330D3*
D27*
X143192Y75883D3*
D28*
X137742D3*
X132292D3*
D27*
X159703D3*
D28*
X154253D3*
X148803D3*
D29*
X156210Y55245D3*
D30*
Y37465D3*
D29*
X140970D3*
D30*
Y55245D3*
D31*
X185420Y38100D3*
Y33020D3*
Y27940D3*
D32*
X120650Y61595D3*
X125730D3*
X130810D3*
X135890D3*
X140970D3*
X146050D3*
X151130D3*
X156210D3*
X161290D3*
X166370D3*
X171450D3*
Y15875D3*
X166370D3*
X161290D3*
X156210D3*
X151130D3*
X146050D3*
X140970D3*
X135890D3*
X130810D3*
X125730D3*
X120650D3*
D34*
X166370Y-10477D3*
X125730D3*
D35*
X97790Y68580D3*
X102870D3*
X185737Y12382D3*
Y7303D3*
D34*
X98000Y88000D3*
X183515Y88265D3*
M02*
