M48
METRIC,0000.00
T01C0.486
T02C0.8
T03C1.168
T04C1.168
T05C1.4
T06C1.5
T07C2.0
T08C4.0
%
T01
X+014732Y+004509
X+016574Y+003556
X+016192Y+002635
X+017431Y+002794
X+017907Y+004000
X+017399Y+004445
X+017113Y+004445
T02
X+009779Y+006858
X+010287Y+006858
X+018574Y+001238
X+018574Y+000730
T03
X+015621Y+003747
X+014097Y+005525
T04
X+015621Y+005525
X+014097Y+003747
T05
X+018542Y+003810
X+018542Y+003302
X+018542Y+002794
X+017145Y+001588
X+016637Y+001588
X+016129Y+001588
X+015621Y+001588
X+015113Y+001588
X+014605Y+001588
X+014097Y+001588
X+013589Y+001588
X+013081Y+001588
X+012573Y+001588
X+012065Y+001588
X+012065Y+006160
X+012573Y+006160
X+013081Y+006160
X+013589Y+006160
X+014097Y+006160
X+014605Y+006160
X+015113Y+006160
X+015621Y+006160
X+016129Y+006160
X+016637Y+006160
X+017145Y+006160
T06
X+014319Y+007588
X+013774Y+007588
X+013229Y+007588
X+014880Y+007588
X+015425Y+007588
X+015970Y+007588
T07
X+010541Y+002350
X+009541Y+002350
X+009533Y+004771
X+010533Y+004771
T08
X+016637Y-001048
X+012573Y-001048
X+009800Y+008800
X+018351Y+008826
T00
M30
