G04 DipTrace 2.3.0.3*
%INTop.gbr*%
%MOMM*%
%ADD13C,0.5*%
%ADD14C,2.0*%
%ADD16C,0.6*%
%ADD17C,0.33*%
%ADD18C,13.0*%
%ADD19C,0.635*%
%ADD20R,1.3X1.5*%
%ADD21R,1.5X1.3*%
%ADD22R,2.7X1.6*%
%ADD23R,1.6X2.7*%
%ADD24R,3.3X3.3*%
%ADD25C,3.3*%
%ADD26R,0.6X2.0*%
%ADD27R,2.4X2.4*%
%ADD28C,2.4*%
%ADD29C,1.778*%
%ADD30C,1.778*%
%ADD31C,3.5*%
%ADD32C,3.5*%
%ADD33R,2.0X0.6*%
%ADD34R,13.0X13.0*%
%ADD35C,3.0*%
%ADD37R,2.75X1.0*%
%ADD38R,6.15X5.55*%
%ADD39C,1.016*%
%FSLAX53Y53*%
G04*
G71*
G90*
G75*
G01*
%LNTop*%
%LPD*%
X98800Y23495D2*
D14*
X95410D1*
X147320Y45085D2*
D13*
Y47625D1*
X153670Y42545D2*
X151130D1*
X147955D1*
X147320Y43180D1*
Y45085D1*
X173985Y42545D2*
Y40640D1*
X163830Y35560D2*
X165418D1*
X165735D1*
X173990Y44450D2*
X173985Y42545D1*
X169230Y43180D2*
X170497D1*
X171133Y43815D1*
Y44450D1*
X174308Y27940D2*
X175895D1*
X161925Y26352D2*
Y28575D1*
X179070Y40005D2*
Y38418D1*
X179067Y38415D1*
X176025Y24895D2*
X176717D1*
X175895Y25717D1*
Y27940D1*
X185737Y12383D2*
D16*
Y15500D1*
X185680Y15558D1*
Y21622D1*
X186722Y20580D1*
Y23780D1*
X185607Y24895D1*
X176025D1*
X169230Y40640D2*
D13*
X172085D1*
X169230Y41910D2*
X170180D1*
X170815Y42545D1*
X172085D1*
X163830Y30798D2*
Y33015D1*
X163825Y33020D1*
X165735D1*
X167322Y34607D1*
Y39370D1*
X169230D1*
X163825Y28575D2*
Y30798D1*
X163830D1*
Y39370D2*
X161925D1*
Y38100D1*
X163830D1*
X161925D2*
Y36830D1*
X163830D1*
X161925Y33020D2*
Y36830D1*
X161930Y30798D2*
Y33015D1*
X161925Y33020D1*
X176845Y38415D2*
X173670D1*
X171765D1*
X171450Y38100D1*
X169230D1*
Y36830D2*
X171450D1*
X172085Y36195D1*
X173350D1*
X173670Y36515D1*
X176845D1*
X173670D2*
Y33335D1*
X173355Y33020D1*
X179067Y36515D2*
X176845D1*
X181605Y27940D2*
X185420D1*
X177795D2*
X179705D1*
X177795D2*
Y29215D1*
X177165Y29845D1*
X172720D1*
X171450Y31115D1*
Y34925D1*
X170815Y35560D1*
X169230D1*
X143510Y68268D2*
Y59690D1*
X146050Y57150D1*
Y53025D1*
X163830Y43180D2*
X159385D1*
X156845Y40640D1*
X154940D1*
X147955D1*
X146050Y42545D1*
Y47625D1*
X153670Y40645D2*
X154940Y40640D1*
X156210Y33655D2*
Y37465D1*
X156842Y70805D2*
X158435D1*
X159702Y72072D1*
Y75883D1*
X135890Y15875D2*
D17*
X140970D1*
Y19685D1*
X149860D1*
X151130Y18415D1*
Y15875D1*
X156210D1*
X105330Y47705D2*
Y23575D1*
X105410Y23495D1*
X140335D1*
X140585Y23245D1*
X140970Y22860D1*
Y19685D1*
X101600Y23495D2*
X105410D1*
X102870Y68580D2*
Y54610D1*
X105410Y52070D1*
Y47785D1*
X105330Y47705D1*
X140970Y31755D2*
D13*
Y23629D1*
X140585Y23245D1*
X156210Y31755D2*
Y15875D1*
X125730Y-10477D2*
D17*
Y15875D1*
X120650D1*
X125730D2*
X130810D1*
X161290D2*
X166370D1*
X171450D1*
X166370D2*
Y-10477D1*
D18*
X125730D1*
X140970Y33655D2*
D13*
Y37465D1*
X163830Y40640D2*
X165100D1*
Y41827D1*
Y41910D1*
X163830D1*
X165100Y41827D2*
X165652D1*
X166370Y42545D1*
Y44450D1*
X169230D1*
X176025Y22095D2*
X177035D1*
X177165Y22225D1*
X161925D1*
X160655Y23495D1*
Y40322D1*
X160972Y40640D1*
X163830D1*
X147320Y53025D2*
Y50800D1*
X147955Y50165D1*
X163513D1*
X166370Y47308D1*
Y44450D1*
X180023Y18300D2*
D16*
Y18415D1*
X176212D1*
Y22095D1*
X176025D1*
X98000Y88000D2*
D17*
X126000D1*
Y61595D1*
X125730D1*
X130810D2*
X125730D1*
X120650D1*
X183515Y88265D2*
X166370D1*
Y61595D1*
X161290D2*
X166370D1*
X171450D1*
X154942Y70805D2*
D13*
X153990D1*
X148590Y65405D1*
Y53025D1*
X175255Y33020D2*
X185420D1*
X163830Y44450D2*
X151130D1*
X149860D1*
X148590Y45720D1*
Y47625D1*
X151130Y44445D2*
Y44450D1*
X143510Y70168D2*
Y75883D1*
X143192D1*
X185737Y7303D2*
D16*
X184150D1*
X182880Y8572D1*
Y15558D1*
Y22860D1*
X180023D1*
D39*
X147320Y45085D3*
X165735Y35560D3*
X173990Y44450D3*
X171133D3*
X161925Y26352D3*
X174308Y27940D3*
X179070Y40005D3*
X91186Y94301D2*
D19*
X132339D1*
X91186Y93669D2*
X132339D1*
X91186Y93038D2*
X132339D1*
X91186Y92406D2*
X132339D1*
X91186Y91774D2*
X132339D1*
X91186Y91143D2*
X132339D1*
X91186Y90511D2*
X132339D1*
X91186Y89879D2*
X132339D1*
X91186Y89247D2*
X132339D1*
X91186Y88616D2*
X132339D1*
X91186Y87984D2*
X132339D1*
X91186Y87352D2*
X132339D1*
X91186Y86721D2*
X132339D1*
X91186Y86089D2*
X132339D1*
X91186Y85457D2*
X132339D1*
X91186Y84826D2*
X132339D1*
X91186Y84194D2*
X132339D1*
X91186Y83562D2*
X132339D1*
X91186Y82931D2*
X132339D1*
X91186Y82299D2*
X132339D1*
X91186Y81668D2*
X132339D1*
X119756Y81036D2*
X132339D1*
X119756Y80404D2*
X132339D1*
X119756Y79773D2*
X132339D1*
X119756Y79141D2*
X132339D1*
X119756Y78509D2*
X132339D1*
X119756Y77878D2*
X132339D1*
X119756Y77246D2*
X130950D1*
X119756Y76614D2*
X130503D1*
X119756Y75982D2*
X130355D1*
X119756Y75351D2*
X130434D1*
X119756Y74719D2*
X130761D1*
X119756Y74087D2*
X131694D1*
X119756Y73456D2*
X132339D1*
X119756Y72824D2*
X132339D1*
X119756Y72192D2*
X132339D1*
X119756Y71561D2*
X132339D1*
X119756Y70929D2*
X132339D1*
X119756Y70298D2*
X132339D1*
X119706Y69666D2*
X132339D1*
X119071Y69034D2*
X132339D1*
X118486Y68403D2*
X132339D1*
X118486Y67771D2*
X132339D1*
X118486Y67139D2*
X132339D1*
X118486Y66508D2*
X132339D1*
X118486Y65876D2*
X132339D1*
X118486Y65244D2*
X132339D1*
X118486Y64612D2*
X132339D1*
X118486Y63981D2*
X132339D1*
X118486Y63349D2*
X132339D1*
X118486Y62717D2*
X132339D1*
X118486Y62086D2*
X132339D1*
X118486Y61454D2*
X132339D1*
X118486Y60822D2*
X132339D1*
X118486Y60191D2*
X132339D1*
X132406Y74015D2*
X132060Y74024D1*
X131750Y74090D1*
X131455Y74207D1*
X131185Y74372D1*
X130946Y74581D1*
X130745Y74827D1*
X130590Y75103D1*
X130482Y75402D1*
X130427Y75714D1*
X130426Y76031D1*
X130477Y76344D1*
X130581Y76643D1*
X130734Y76921D1*
X130932Y77169D1*
X131168Y77380D1*
X131437Y77549D1*
X131730Y77669D1*
X132040Y77738D1*
X132406Y77748D1*
X132398Y78740D1*
Y94933D1*
X91122D1*
Y81597D1*
X119380D1*
X119648Y81442D1*
X119697Y81280D1*
X119693Y69842D1*
X119605Y69625D1*
X118431Y68452D1*
X118428Y59690D1*
X132398D1*
Y74007D1*
X159766Y93983D2*
X189806D1*
X159766Y93352D2*
X189806D1*
X159766Y92720D2*
X189806D1*
X159766Y92088D2*
X189806D1*
X159766Y91457D2*
X189806D1*
X159766Y90825D2*
X189806D1*
X159766Y90193D2*
X189806D1*
X159766Y89562D2*
X189806D1*
X159766Y88930D2*
X189806D1*
X159766Y88298D2*
X189806D1*
X159766Y87667D2*
X189806D1*
X159766Y87035D2*
X189806D1*
X159766Y86403D2*
X189806D1*
X159766Y85772D2*
X189806D1*
X159766Y85140D2*
X189806D1*
X159766Y84508D2*
X189806D1*
X159766Y83877D2*
X189806D1*
X159766Y83245D2*
X189806D1*
X159766Y82613D2*
X189806D1*
X159766Y81982D2*
X189806D1*
X159766Y81350D2*
X172701D1*
X159766Y80718D2*
X172701D1*
X159766Y80087D2*
X172691D1*
X159766Y79455D2*
X172691D1*
X159766Y78823D2*
X172691D1*
X159766Y78192D2*
X172691D1*
X161636Y77560D2*
X172681D1*
X161636Y76928D2*
X172681D1*
X161636Y76297D2*
X172681D1*
X161636Y75665D2*
X172681D1*
X161636Y75033D2*
X172681D1*
X161636Y74402D2*
X172671D1*
X160684Y73770D2*
X172671D1*
X160684Y73138D2*
X172671D1*
X160684Y72507D2*
X172671D1*
X160664Y71875D2*
X172661D1*
X160237Y71243D2*
X172661D1*
X159766Y70612D2*
X172661D1*
X159766Y69980D2*
X172661D1*
X159766Y69348D2*
X173029D1*
X159766Y68717D2*
X173614D1*
X159766Y68085D2*
X173614D1*
X159766Y67453D2*
X173614D1*
X159766Y66822D2*
X173614D1*
X159766Y66190D2*
X173614D1*
X159766Y65558D2*
X173614D1*
X159766Y64927D2*
X173614D1*
X159766Y64295D2*
X173614D1*
X159766Y63663D2*
X173614D1*
X159766Y63032D2*
X173614D1*
X159766Y62400D2*
X173614D1*
X159766Y61768D2*
X173614D1*
X159766Y61137D2*
X173614D1*
X159766Y60505D2*
X173614D1*
X159766Y59873D2*
X173614D1*
X159705Y77755D2*
X161575D1*
Y74010D1*
X160633D1*
X160625Y72707D1*
Y72072D1*
X160571Y71761D1*
X160384Y71450D1*
X159703Y70767D1*
X159702Y59690D1*
X173673D1*
Y68769D1*
X172810Y69635D1*
X172720Y69851D1*
X172764Y81277D1*
X172920Y81544D1*
X173081Y81593D1*
X189865Y81597D1*
Y94615D1*
X159702D1*
Y77758D1*
X118491Y17307D2*
X132974D1*
X118491Y16675D2*
X132974D1*
X118491Y16044D2*
X132974D1*
X118491Y15412D2*
X132974D1*
X118491Y14780D2*
X132974D1*
X118491Y14149D2*
X132974D1*
X118491Y13517D2*
X132974D1*
X118491Y12885D2*
X132974D1*
X118491Y12254D2*
X132974D1*
X118491Y11622D2*
X132974D1*
X118491Y10990D2*
X132974D1*
X118491Y10359D2*
X132974D1*
X118491Y9727D2*
X132974D1*
X118491Y9095D2*
X132974D1*
X118893Y8464D2*
X132567D1*
X119439Y7832D2*
X132021D1*
X119439Y7200D2*
X132021D1*
X119439Y6569D2*
X132021D1*
X119439Y5937D2*
X132021D1*
X119439Y5305D2*
X132021D1*
X119439Y4674D2*
X132021D1*
X119439Y4042D2*
X132021D1*
X119439Y3410D2*
X132021D1*
X119439Y2779D2*
X132021D1*
X119439Y2147D2*
X132021D1*
X119439Y1515D2*
X132021D1*
X119439Y884D2*
X132021D1*
X119439Y252D2*
X132021D1*
X119439Y-380D2*
X132021D1*
X119439Y-1011D2*
X132021D1*
X119439Y-1643D2*
X132021D1*
X119439Y-2275D2*
X132021D1*
X119439Y-2906D2*
X132021D1*
X119439Y-3538D2*
X132021D1*
X119439Y-4170D2*
X132021D1*
X119439Y-4801D2*
X132021D1*
X119439Y-5433D2*
X132021D1*
X119439Y-6065D2*
X132021D1*
X119439Y-6696D2*
X132021D1*
X119439Y-7328D2*
X132021D1*
X119439Y-7960D2*
X132021D1*
X119439Y-8591D2*
X132021D1*
X119439Y-9223D2*
X132021D1*
X119439Y-9855D2*
X132021D1*
X119439Y-10486D2*
X132021D1*
X119439Y-11118D2*
X132021D1*
X119439Y-11750D2*
X132021D1*
X119439Y-12381D2*
X132021D1*
X119439Y-13013D2*
X132021D1*
X119439Y-13645D2*
X132021D1*
X119439Y-14276D2*
X132021D1*
X119439Y-14908D2*
X132021D1*
X119439Y-15540D2*
X132021D1*
X119439Y-16171D2*
X132021D1*
X119439Y-16803D2*
X132021D1*
X119697Y-16986D2*
X132080D1*
X132085Y7787D1*
X132173Y8003D1*
X133036Y8866D1*
X133033Y17939D1*
X118428D1*
Y8860D1*
X119290Y7994D1*
X119380Y7779D1*
Y-16986D1*
X119697D1*
X159131Y17307D2*
X173614D1*
X159131Y16675D2*
X173614D1*
X159131Y16044D2*
X173614D1*
X159131Y15412D2*
X173614D1*
X159131Y14780D2*
X173614D1*
X159131Y14149D2*
X173614D1*
X159131Y13517D2*
X173614D1*
X159131Y12885D2*
X173614D1*
X159131Y12254D2*
X173614D1*
X159131Y11622D2*
X173614D1*
X159131Y10990D2*
X173614D1*
X159131Y10359D2*
X173614D1*
X159131Y9727D2*
X173614D1*
X159131Y9095D2*
X173614D1*
X159533Y8464D2*
X173207D1*
X160079Y7832D2*
X172661D1*
X160079Y7200D2*
X172661D1*
X160079Y6569D2*
X172661D1*
X160079Y5937D2*
X172661D1*
X160079Y5305D2*
X172661D1*
X160079Y4674D2*
X172661D1*
X160079Y4042D2*
X172661D1*
X160079Y3410D2*
X172661D1*
X160079Y2779D2*
X172661D1*
X160079Y2147D2*
X172661D1*
X160079Y1515D2*
X172661D1*
X160079Y884D2*
X172661D1*
X160079Y252D2*
X172661D1*
X160079Y-380D2*
X172661D1*
X160079Y-1011D2*
X172661D1*
X160079Y-1643D2*
X172661D1*
X160079Y-2275D2*
X172661D1*
X160079Y-2906D2*
X172661D1*
X160079Y-3538D2*
X172661D1*
X160079Y-4170D2*
X172661D1*
X160079Y-4801D2*
X172661D1*
X160079Y-5433D2*
X172661D1*
X160079Y-6065D2*
X172661D1*
X160079Y-6696D2*
X172661D1*
X160079Y-7328D2*
X172661D1*
X160079Y-7960D2*
X172661D1*
X160079Y-8591D2*
X172661D1*
X160079Y-9223D2*
X172661D1*
X160079Y-9855D2*
X172661D1*
X160079Y-10486D2*
X172661D1*
X160079Y-11118D2*
X172661D1*
X160079Y-11750D2*
X172661D1*
X160079Y-12381D2*
X172661D1*
X160079Y-13013D2*
X172661D1*
X160079Y-13645D2*
X172661D1*
X160079Y-14276D2*
X172661D1*
X160079Y-14908D2*
X172661D1*
X160079Y-15540D2*
X172661D1*
X160079Y-16171D2*
X172661D1*
X160079Y-16803D2*
X172661D1*
X160337Y-16986D2*
X172720D1*
X172725Y7787D1*
X172813Y8003D1*
X173676Y8866D1*
X173673Y17939D1*
X159067D1*
Y8860D1*
X159930Y7994D1*
X160020Y7779D1*
Y-16986D1*
X160337D1*
X101346Y69853D2*
X112654D1*
X101346Y69222D2*
X112654D1*
X101346Y68590D2*
X112654D1*
X101346Y67958D2*
X112654D1*
X101346Y67327D2*
X112654D1*
X101346Y66695D2*
X112654D1*
X101346Y66063D2*
X112654D1*
X101346Y65432D2*
X112654D1*
X101346Y64800D2*
X112654D1*
X101346Y64168D2*
X112654D1*
X101346Y63537D2*
X112654D1*
X101346Y62905D2*
X112654D1*
X101346Y62273D2*
X112654D1*
X101346Y61642D2*
X112654D1*
X101346Y61010D2*
X112654D1*
X101346Y60378D2*
X112654D1*
X101346Y59747D2*
X112654D1*
X101346Y59115D2*
X112654D1*
X101346Y58483D2*
X112654D1*
X101346Y57852D2*
X112654D1*
X101346Y57220D2*
X112654D1*
X101346Y56588D2*
X112654D1*
X101346Y55957D2*
X112654D1*
X101346Y55325D2*
X112654D1*
X101346Y54693D2*
X112654D1*
X101346Y54062D2*
X112654D1*
X101346Y53430D2*
X112654D1*
X101346Y52798D2*
X112654D1*
X101346Y52167D2*
X112654D1*
X101346Y51535D2*
X112654D1*
X101346Y50903D2*
X112654D1*
X101346Y50272D2*
X112654D1*
X101346Y49640D2*
X112654D1*
X101346Y49008D2*
X112654D1*
X101346Y48377D2*
X112654D1*
X101346Y47745D2*
X112654D1*
X101346Y47113D2*
X112654D1*
X101346Y46482D2*
X112654D1*
X101346Y45850D2*
X112654D1*
X101346Y45218D2*
X112654D1*
X101346Y44587D2*
X112654D1*
X101346Y43955D2*
X112654D1*
X101346Y43323D2*
X112654D1*
X101346Y42692D2*
X112654D1*
X101346Y42060D2*
X112654D1*
X101346Y41428D2*
X112654D1*
X101346Y40797D2*
X112654D1*
X101346Y40165D2*
X112654D1*
X101346Y39533D2*
X112654D1*
X101346Y38902D2*
X112654D1*
X101346Y38270D2*
X112654D1*
X101346Y37638D2*
X112654D1*
X101346Y37007D2*
X112654D1*
X101346Y36375D2*
X112654D1*
X101346Y35743D2*
X112654D1*
X101346Y35112D2*
X112654D1*
X101346Y34480D2*
X112654D1*
X101346Y33848D2*
X112654D1*
X101346Y33217D2*
X112654D1*
X101346Y32585D2*
X112654D1*
X101346Y31953D2*
X112654D1*
X101346Y31322D2*
X112654D1*
X101346Y30690D2*
X112654D1*
X101346Y30058D2*
X112654D1*
X101897Y29427D2*
X112654D1*
X101976Y28795D2*
X157739D1*
X101976Y28163D2*
X157739D1*
X101976Y27532D2*
X157739D1*
X101976Y26900D2*
X157739D1*
X101976Y26268D2*
X157739D1*
X101976Y25637D2*
X157739D1*
X101976Y25005D2*
X157739D1*
X101976Y24373D2*
X157739D1*
X101976Y23742D2*
X157739D1*
X101976Y23110D2*
X157739D1*
X101976Y22478D2*
X157739D1*
X101976Y21847D2*
X157739D1*
X101976Y21215D2*
X157739D1*
X101976Y20583D2*
X157739D1*
X101976Y19952D2*
X157739D1*
X134212Y19320D2*
X157739D1*
X134361Y18688D2*
X157739D1*
X134361Y18057D2*
X144930D1*
X147170D2*
X157739D1*
X134361Y17425D2*
X144126D1*
X147974D2*
X157739D1*
X134361Y16793D2*
X143749D1*
X148351D2*
X157739D1*
X134361Y16162D2*
X143580D1*
X148520D2*
X157739D1*
X134361Y15530D2*
X143590D1*
X148510D2*
X157739D1*
X134361Y14898D2*
X143769D1*
X148331D2*
X157739D1*
X134361Y14267D2*
X144176D1*
X147924D2*
X157739D1*
X134361Y13635D2*
X145069D1*
X147031D2*
X157739D1*
X148452Y15558D2*
X148390Y15247D1*
X148288Y14947D1*
X148148Y14662D1*
X147971Y14399D1*
X147762Y14160D1*
X147523Y13951D1*
X147259Y13775D1*
X146974Y13635D1*
X146674Y13534D1*
X146362Y13472D1*
X146046Y13452D1*
X145729Y13473D1*
X145418Y13536D1*
X145118Y13639D1*
X144834Y13779D1*
X144570Y13956D1*
X144332Y14166D1*
X144124Y14405D1*
X143948Y14669D1*
X143809Y14954D1*
X143708Y15255D1*
X143647Y15567D1*
X143627Y15883D1*
X143649Y16200D1*
X143712Y16511D1*
X143815Y16811D1*
X143957Y17095D1*
X144134Y17358D1*
X144344Y17596D1*
X144583Y17804D1*
X144848Y17979D1*
X145133Y18118D1*
X145434Y18218D1*
X145746Y18279D1*
X146062Y18298D1*
X146379Y18275D1*
X146690Y18212D1*
X146990Y18108D1*
X147273Y17966D1*
X147536Y17789D1*
X147773Y17578D1*
X147981Y17338D1*
X148156Y17073D1*
X148294Y16788D1*
X148394Y16487D1*
X148454Y16175D1*
X148473Y15875D1*
X148452Y15558D1*
X157798Y13653D2*
Y28893D1*
X113030D1*
X112762Y29048D1*
X112712Y29210D1*
Y70485D1*
X101283D1*
Y29974D1*
X101827Y29425D1*
X101918Y29210D1*
Y19367D1*
X133985D1*
X134253Y19212D1*
X134303Y19050D1*
Y13335D1*
X157798D1*
Y13653D1*
D20*
X172085Y40640D3*
X173985D3*
X163825Y33020D3*
X161925D3*
D21*
X176845Y36515D3*
Y38415D3*
X140970Y33655D3*
Y31755D3*
X156210Y33655D3*
Y31755D3*
D22*
X176025Y22095D3*
Y24895D3*
D23*
X182880Y15558D3*
X185680D3*
X101600Y23495D3*
X98800D3*
D24*
X105410D3*
D25*
X95410D3*
D24*
X105330Y47705D3*
D25*
X95330D3*
D26*
X144780Y47625D3*
X146050D3*
X147320D3*
X148590D3*
Y53025D3*
X147320D3*
X146050D3*
X144780D3*
D27*
X143192Y75883D3*
D28*
X137742D3*
X132292D3*
D27*
X159703D3*
D28*
X154253D3*
X148803D3*
D20*
X172085Y42545D3*
X173985D3*
X161925Y28575D3*
X163825D3*
X163830Y30798D3*
X161930D3*
D21*
X173670Y36515D3*
Y38415D3*
D20*
X175895Y27940D3*
X177795D3*
X179705D3*
X181605D3*
D21*
X179067Y38415D3*
Y36515D3*
D20*
X175255Y33020D3*
X173355D3*
D29*
X156210Y55245D3*
D30*
Y37465D3*
D29*
X140970D3*
D30*
Y55245D3*
D21*
X153670Y42545D3*
Y40645D3*
X151130Y42545D3*
Y44445D3*
X143510Y70168D3*
Y68267D3*
D20*
X156843Y70805D3*
X154942D3*
D31*
X185420Y38100D3*
Y33020D3*
Y27940D3*
D32*
X120650Y61595D3*
X125730D3*
X130810D3*
X135890D3*
X140970D3*
X146050D3*
X151130D3*
X156210D3*
X161290D3*
X166370D3*
X171450D3*
Y15875D3*
X166370D3*
X161290D3*
X156210D3*
X151130D3*
X146050D3*
X140970D3*
X135890D3*
X130810D3*
X125730D3*
X120650D3*
D33*
X169230Y35560D3*
Y36830D3*
Y38100D3*
Y39370D3*
Y40640D3*
Y41910D3*
Y43180D3*
Y44450D3*
X163830D3*
Y43180D3*
Y41910D3*
Y40640D3*
Y39370D3*
Y38100D3*
Y36830D3*
Y35560D3*
D34*
X166370Y-10477D3*
X125730D3*
D35*
X97790Y68580D3*
X102870D3*
D37*
X180022Y22860D3*
Y18300D3*
D38*
X186722Y20580D3*
D35*
X185737Y12382D3*
Y7303D3*
D34*
X98000Y88000D3*
X183515Y88265D3*
M02*
