G04 DipTrace 2.3.0.3*
%INTop.gbr*%
%MOMM*%
%ADD13C,0.635*%
%ADD14R,1.6X2.7*%
%ADD15R,13.0X13.0*%
%FSLAX53Y53*%
G04*
G71*
G90*
G75*
G01*
%LNTop*%
%LPD*%
X-10096Y6353D2*
D13*
X11684D1*
X-10096Y5722D2*
X11684D1*
X-10096Y5090D2*
X11684D1*
X-10096Y4458D2*
X11684D1*
X-10096Y3827D2*
X11684D1*
X-10096Y3195D2*
X11684D1*
X-10096Y2563D2*
X11684D1*
X-10096Y1932D2*
X11684D1*
X-10096Y1300D2*
X11684D1*
X-10096Y668D2*
X11684D1*
X-10096Y37D2*
X11684D1*
X-10096Y-595D2*
X11684D1*
X-10096Y-1227D2*
X11684D1*
X-10096Y-1858D2*
X11684D1*
X-10096Y-2490D2*
X11684D1*
X-10096Y-3122D2*
X11684D1*
X-10096Y-3753D2*
X11684D1*
X-10096Y-4385D2*
X11684D1*
X-10096Y-5017D2*
X11684D1*
X-10096Y-5648D2*
X11684D1*
X-10096Y-6280D2*
X11684D1*
X-10096Y-6912D2*
X11684D1*
X-10096Y-7543D2*
X11684D1*
X-10096Y-8175D2*
X11684D1*
X-10096Y-8807D2*
X11684D1*
X-10096Y-9438D2*
X11684D1*
X-10096Y-10070D2*
X11684D1*
X-10096Y-10702D2*
X11684D1*
X-10096Y-11333D2*
X11684D1*
X-10096Y-11965D2*
X11684D1*
X-10096Y-12597D2*
X11684D1*
X-10096Y-13228D2*
X11684D1*
X-10096Y-13860D2*
X11684D1*
X-10096Y-14492D2*
X11684D1*
X-10096Y-15123D2*
X11684D1*
X-10096Y-15755D2*
X11684D1*
X-10096Y-16387D2*
X11684D1*
X-10096Y-17018D2*
X11684D1*
X-10096Y-17650D2*
X11684D1*
X-10096Y-18282D2*
X11684D1*
X-10096Y-18913D2*
X11684D1*
X-10096Y-19545D2*
X11684D1*
X-10096Y-20177D2*
X11684D1*
X-10096Y-20808D2*
X11684D1*
X-10096Y-21440D2*
X11684D1*
X-10096Y-22072D2*
X11684D1*
X-10096Y-22703D2*
X11684D1*
X-10096Y-23335D2*
X11684D1*
X-10096Y-23967D2*
X11684D1*
X-10096Y-24598D2*
X11684D1*
X-10096Y-25230D2*
X11684D1*
X-10096Y-25862D2*
X11684D1*
X-10096Y-26493D2*
X11684D1*
X-10096Y-27125D2*
X11684D1*
X-10096Y-27757D2*
X11684D1*
X-10096Y-28388D2*
X11684D1*
X-10096Y-29020D2*
X11684D1*
X-10096Y-29652D2*
X11684D1*
X-10096Y-30283D2*
X11684D1*
X-10096Y-30915D2*
X11684D1*
X-10096Y-31547D2*
X11684D1*
X-10096Y-32178D2*
X11684D1*
X-10096Y-32810D2*
X11684D1*
X-10096Y-33442D2*
X11684D1*
X-10096Y-34073D2*
X11684D1*
X-10096Y-34705D2*
X11684D1*
X-4704Y-35337D2*
X-1646D1*
X8631D2*
X11684D1*
X-4704Y-35968D2*
X-1646D1*
X8631D2*
X11684D1*
X-4704Y-36600D2*
X-1646D1*
X8631D2*
X11684D1*
X-4704Y-37232D2*
X-1646D1*
X8631D2*
X11684D1*
X-4704Y-37863D2*
X-1646D1*
X8631D2*
X11684D1*
X-4704Y-38495D2*
X-1646D1*
X8631D2*
X11684D1*
X-4704Y-39127D2*
X-1646D1*
X8631D2*
X11684D1*
X-4704Y-39758D2*
X-1646D1*
X8631D2*
X11684D1*
X-4704Y-40390D2*
X-1646D1*
X8631D2*
X11684D1*
X-4704Y-41022D2*
X-1646D1*
X8631D2*
X11684D1*
X-4704Y-41653D2*
X-1646D1*
X8631D2*
X11684D1*
X-4704Y-42285D2*
X-1646D1*
X8631D2*
X11684D1*
X-4704Y-42917D2*
X-1646D1*
X8631D2*
X11684D1*
X-4704Y-43548D2*
X-1646D1*
X8631D2*
X11684D1*
X-4704Y-44180D2*
X-1646D1*
X8631D2*
X11684D1*
X-4704Y-44812D2*
X-1646D1*
X8631D2*
X11684D1*
X-4704Y-45443D2*
X-1646D1*
X8631D2*
X11684D1*
X-4704Y-46075D2*
X-1646D1*
X8631D2*
X11684D1*
X-4704Y-46707D2*
X-1646D1*
X8631D2*
X11684D1*
X-4704Y-47338D2*
X-1646D1*
X8631D2*
X11684D1*
X-4704Y-47970D2*
X-1646D1*
X8631D2*
X11684D1*
X-4704Y-48602D2*
X-1646D1*
X8631D2*
X11684D1*
X-4704Y-49233D2*
X-1646D1*
X8631D2*
X11684D1*
X-4704Y-49865D2*
X-1646D1*
X8631D2*
X11684D1*
X-4704Y-50497D2*
X-1646D1*
X8631D2*
X11684D1*
X-4704Y-51128D2*
X-1646D1*
X8631D2*
X11684D1*
X-4704Y-51760D2*
X-1646D1*
X8631D2*
X11684D1*
X-4704Y-52392D2*
X-1646D1*
X8631D2*
X11684D1*
X-4704Y-53023D2*
X-1646D1*
X8631D2*
X11684D1*
X-4704Y-53655D2*
X-1646D1*
X8631D2*
X11684D1*
X-4704Y-54287D2*
X-1646D1*
X8631D2*
X11684D1*
X-4704Y-54918D2*
X-1646D1*
X8631D2*
X11684D1*
X-4704Y-55550D2*
X-1646D1*
X8631D2*
X11684D1*
X-4704Y-56182D2*
X-1646D1*
X8631D2*
X11684D1*
X-4704Y-56813D2*
X-1646D1*
X8631D2*
X11684D1*
X-4704Y-57445D2*
X-1646D1*
X8631D2*
X11684D1*
X-4704Y-58077D2*
X-1646D1*
X8631D2*
X11684D1*
X-4704Y-58708D2*
X-1646D1*
X8631D2*
X11684D1*
X-4704Y-59340D2*
X-1646D1*
X8631D2*
X11684D1*
X-4704Y-59972D2*
X-1646D1*
X8631D2*
X11684D1*
X-4704Y-60603D2*
X-1646D1*
X8631D2*
X11684D1*
X-4704Y-61235D2*
X-1646D1*
X8631D2*
X11684D1*
X-4704Y-61867D2*
X-1646D1*
X8631D2*
X11684D1*
X-4704Y-62498D2*
X-1646D1*
X8631D2*
X11684D1*
X-4704Y-63130D2*
X-1646D1*
X8631D2*
X11684D1*
X-4704Y-63762D2*
X-1646D1*
X8631D2*
X11684D1*
X-4704Y-64393D2*
X-1646D1*
X8631D2*
X11684D1*
X-4704Y-65025D2*
X-1646D1*
X8631D2*
X11684D1*
X-4704Y-65657D2*
X-1646D1*
X8631D2*
X11684D1*
X-4704Y-66288D2*
X-1646D1*
X8631D2*
X11684D1*
X-4704Y-66920D2*
X-1646D1*
X8631D2*
X11684D1*
X-4704Y-67552D2*
X-1646D1*
X8631D2*
X11684D1*
X-4704Y-68183D2*
X-1646D1*
X8631D2*
X11684D1*
X-4704Y-68815D2*
X-1646D1*
X8631D2*
X11684D1*
X-4704Y-69447D2*
X-1646D1*
X8631D2*
X11684D1*
X-4704Y-70078D2*
X-1646D1*
X8631D2*
X11684D1*
X-4704Y-70710D2*
X-1646D1*
X8631D2*
X11684D1*
X-4704Y-71342D2*
X-1646D1*
X8631D2*
X11684D1*
X-4704Y-71973D2*
X-1646D1*
X8631D2*
X11684D1*
X-4704Y-72605D2*
X-1646D1*
X8631D2*
X11684D1*
X-4704Y-73237D2*
X-1646D1*
X8631D2*
X11684D1*
X-4704Y-73868D2*
X-1646D1*
X8631D2*
X11684D1*
X-4704Y-74500D2*
X-1646D1*
X8631D2*
X11684D1*
X-4704Y-75132D2*
X-1646D1*
X8631D2*
X11684D1*
X-4704Y-75763D2*
X-1646D1*
X8631D2*
X11684D1*
X-4704Y-76395D2*
X-1646D1*
X8631D2*
X11684D1*
X-4704Y-77027D2*
X-1646D1*
X8631D2*
X11684D1*
X-4704Y-77658D2*
X-1646D1*
X8631D2*
X11684D1*
X-4704Y-78290D2*
X-1646D1*
X8631D2*
X11684D1*
X-4704Y-78922D2*
X-1646D1*
X8631D2*
X11684D1*
X-4704Y-79553D2*
X-1646D1*
X8631D2*
X11684D1*
X-4704Y-80185D2*
X-1646D1*
X8631D2*
X11684D1*
X-4704Y-80817D2*
X-1646D1*
X8631D2*
X11684D1*
X-4704Y-81448D2*
X-1646D1*
X8631D2*
X11684D1*
X-4704Y-82080D2*
X-1646D1*
X8631D2*
X11684D1*
X-4704Y-82712D2*
X-1646D1*
X8631D2*
X11684D1*
X-4704Y-83343D2*
X-1646D1*
X8631D2*
X11684D1*
X-4704Y-83975D2*
X-1646D1*
X8631D2*
X11684D1*
X-4704Y-84607D2*
X-1646D1*
X8631D2*
X11684D1*
X-4704Y-85238D2*
X-1646D1*
X8631D2*
X11684D1*
X-4762Y-35242D2*
Y-85408D1*
X-1587D1*
Y-35242D1*
X-1432Y-34975D1*
X-1270Y-34925D1*
X8255D1*
X8523Y-35080D1*
X8572Y-35242D1*
Y-85408D1*
X11748D1*
Y6985D1*
X-10160D1*
Y-34925D1*
X-5080D1*
X-4812Y-35080D1*
X-4765Y-35202D1*
X-10096Y-36827D2*
X-8314D1*
X1964D2*
X5021D1*
X-10096Y-37458D2*
X-8314D1*
X1964D2*
X5021D1*
X-10096Y-38090D2*
X-8314D1*
X1964D2*
X5031D1*
X-10096Y-38722D2*
X-8314D1*
X1964D2*
X5031D1*
X-10096Y-39353D2*
X-8314D1*
X1964D2*
X5041D1*
X-10096Y-39985D2*
X-8314D1*
X1964D2*
X5041D1*
X-10096Y-40617D2*
X-8314D1*
X1964D2*
X5041D1*
X-10096Y-41248D2*
X-8314D1*
X1964D2*
X5051D1*
X-10096Y-41880D2*
X-8314D1*
X1964D2*
X5051D1*
X-10096Y-42512D2*
X-8314D1*
X1964D2*
X5061D1*
X-10096Y-43143D2*
X-8314D1*
X1964D2*
X5061D1*
X-10096Y-43775D2*
X-8314D1*
X1964D2*
X5061D1*
X-10096Y-44407D2*
X-8314D1*
X1964D2*
X5071D1*
X-10096Y-45038D2*
X-8314D1*
X1964D2*
X5071D1*
X-10096Y-45670D2*
X-8314D1*
X1964D2*
X5081D1*
X-10096Y-46302D2*
X-8314D1*
X1964D2*
X5081D1*
X-10096Y-46933D2*
X-8314D1*
X1964D2*
X5081D1*
X-10096Y-47565D2*
X-8314D1*
X1964D2*
X5091D1*
X-10096Y-48197D2*
X-8314D1*
X1964D2*
X5091D1*
X-10096Y-48828D2*
X-8314D1*
X1964D2*
X5101D1*
X-10096Y-49460D2*
X-8314D1*
X1964D2*
X5101D1*
X-10096Y-50092D2*
X-8314D1*
X1964D2*
X5101D1*
X-10096Y-50723D2*
X-8314D1*
X1964D2*
X5111D1*
X-10096Y-51355D2*
X-8314D1*
X1964D2*
X5111D1*
X-10096Y-51987D2*
X-8314D1*
X1964D2*
X5121D1*
X-10096Y-52618D2*
X-8314D1*
X1964D2*
X5121D1*
X-10096Y-53250D2*
X-8314D1*
X1964D2*
X5121D1*
X-10096Y-53882D2*
X-8314D1*
X1964D2*
X5131D1*
X-10096Y-54513D2*
X-8314D1*
X1964D2*
X5131D1*
X-10096Y-55145D2*
X-8314D1*
X1964D2*
X5141D1*
X-10096Y-55777D2*
X-8314D1*
X1964D2*
X5141D1*
X-10096Y-56408D2*
X-8314D1*
X1964D2*
X5141D1*
X-10096Y-57040D2*
X-8314D1*
X1964D2*
X5150D1*
X-10096Y-57672D2*
X-8314D1*
X1964D2*
X5150D1*
X-10096Y-58303D2*
X-8314D1*
X1964D2*
X5160D1*
X-10096Y-58935D2*
X-8314D1*
X1964D2*
X5160D1*
X-10096Y-59567D2*
X-8314D1*
X1964D2*
X5160D1*
X-10096Y-60198D2*
X-8314D1*
X1964D2*
X5170D1*
X-10096Y-60830D2*
X-8314D1*
X1964D2*
X5170D1*
X-10096Y-61462D2*
X-8314D1*
X1964D2*
X5180D1*
X-10096Y-62093D2*
X-8314D1*
X1964D2*
X5180D1*
X-10096Y-62725D2*
X-8314D1*
X1964D2*
X5180D1*
X-10096Y-63357D2*
X-8314D1*
X1964D2*
X5190D1*
X-10096Y-63988D2*
X-8314D1*
X1964D2*
X5190D1*
X-10096Y-64620D2*
X-8314D1*
X1964D2*
X5200D1*
X-10096Y-65252D2*
X-8314D1*
X1964D2*
X5200D1*
X-10096Y-65883D2*
X-8314D1*
X1964D2*
X5200D1*
X-10096Y-66515D2*
X-8314D1*
X1964D2*
X5210D1*
X-10096Y-67147D2*
X-8314D1*
X1964D2*
X5210D1*
X-10096Y-67778D2*
X-8314D1*
X1964D2*
X5220D1*
X-10096Y-68410D2*
X-8314D1*
X1964D2*
X5220D1*
X-10096Y-69042D2*
X-8314D1*
X1964D2*
X5220D1*
X-10096Y-69673D2*
X-8314D1*
X1964D2*
X5230D1*
X-10096Y-70305D2*
X-8314D1*
X1964D2*
X5230D1*
X-10096Y-70937D2*
X-8314D1*
X1964D2*
X5240D1*
X-10096Y-71568D2*
X-8314D1*
X1964D2*
X5240D1*
X-10096Y-72200D2*
X-8314D1*
X1964D2*
X5240D1*
X-10096Y-72832D2*
X-8314D1*
X1964D2*
X5250D1*
X-10096Y-73463D2*
X-8314D1*
X1964D2*
X5250D1*
X-10096Y-74095D2*
X-8314D1*
X1964D2*
X5260D1*
X-10096Y-74727D2*
X-8314D1*
X1964D2*
X5260D1*
X-10096Y-75358D2*
X-8314D1*
X1964D2*
X5260D1*
X-10096Y-75990D2*
X-8314D1*
X1964D2*
X5270D1*
X-10096Y-76622D2*
X-8314D1*
X1964D2*
X5270D1*
X-10096Y-77253D2*
X-8314D1*
X1964D2*
X5279D1*
X-10096Y-77885D2*
X-8314D1*
X1964D2*
X5279D1*
X-10096Y-78517D2*
X-8314D1*
X1964D2*
X5279D1*
X-10096Y-79148D2*
X-8314D1*
X1964D2*
X5289D1*
X-10096Y-79780D2*
X-8314D1*
X1964D2*
X5289D1*
X-10096Y-80412D2*
X-8314D1*
X1964D2*
X5299D1*
X-10096Y-81043D2*
X-8314D1*
X1964D2*
X5299D1*
X-10096Y-81675D2*
X-8314D1*
X1964D2*
X5299D1*
X-10096Y-82307D2*
X-8314D1*
X1964D2*
X5309D1*
X-10096Y-82938D2*
X-8314D1*
X1964D2*
X5309D1*
X-10096Y-83570D2*
X-8314D1*
X1964D2*
X5319D1*
X-10096Y-84202D2*
X-8314D1*
X1964D2*
X5319D1*
X-10096Y-84833D2*
X-8314D1*
X1964D2*
X5319D1*
X-10096Y-85465D2*
X-8314D1*
X1964D2*
X5329D1*
X-10096Y-86097D2*
X-8314D1*
X1964D2*
X5329D1*
X-10096Y-86728D2*
X-8314D1*
X1964D2*
X5339D1*
X-10096Y-87360D2*
X11689D1*
X-10096Y-87992D2*
X11689D1*
X-10096Y-88623D2*
X11689D1*
X-10096Y-89255D2*
X11689D1*
X-10096Y-89887D2*
X11689D1*
X-10096Y-90518D2*
X11689D1*
X-10096Y-91150D2*
X11689D1*
X-10096Y-91782D2*
X11689D1*
X-10096Y-92413D2*
X11689D1*
X-10096Y-93045D2*
X11689D1*
X-10096Y-93677D2*
X11689D1*
X-10096Y-94308D2*
X11689D1*
X-10096Y-94940D2*
X11689D1*
X-10096Y-95572D2*
X11689D1*
X-10096Y-96203D2*
X11689D1*
X-10096Y-96835D2*
X11689D1*
X-10096Y-97467D2*
X11689D1*
X-10096Y-98098D2*
X11689D1*
X-10096Y-98730D2*
X11689D1*
X-10096Y-99362D2*
X11689D1*
X-10096Y-99993D2*
X11689D1*
X-10096Y-100625D2*
X11689D1*
X-10096Y-101257D2*
X11689D1*
X-10096Y-101888D2*
X11689D1*
X-10096Y-102520D2*
X11689D1*
X-10096Y-103152D2*
X11689D1*
X-10096Y-103783D2*
X11689D1*
X-10096Y-104415D2*
X11689D1*
X-10096Y-105047D2*
X11689D1*
X-10096Y-105678D2*
X11689D1*
X-10096Y-106310D2*
X11689D1*
X-10096Y-106942D2*
X11689D1*
X-10096Y-107573D2*
X11689D1*
X-10096Y-108205D2*
X11689D1*
X-10096Y-108837D2*
X11689D1*
X-10096Y-109468D2*
X11689D1*
X-10096Y-110100D2*
X11689D1*
X-10096Y-110732D2*
X11689D1*
X-10096Y-111363D2*
X11689D1*
X-10096Y-111995D2*
X11689D1*
X-10096Y-112627D2*
X11689D1*
X-10096Y-113258D2*
X11689D1*
X-10096Y-113890D2*
X11689D1*
X-10096Y-114522D2*
X11689D1*
X-10096Y-115153D2*
X11689D1*
X-10096Y-115785D2*
X11689D1*
X-10096Y-116417D2*
X11689D1*
X-10096Y-117048D2*
X11689D1*
X-10096Y-117680D2*
X11689D1*
X-10096Y-118312D2*
X11689D1*
X-10096Y-118943D2*
X11689D1*
X-10096Y-119575D2*
X11689D1*
X-10096Y-120207D2*
X11689D1*
X-10096Y-120838D2*
X11689D1*
X-10096Y-121470D2*
X11689D1*
X-10096Y-122102D2*
X11689D1*
X-10096Y-122733D2*
X11689D1*
X-10096Y-123365D2*
X11689D1*
X-10096Y-123997D2*
X11689D1*
X-10096Y-124628D2*
X11689D1*
X-10096Y-125260D2*
X11689D1*
X-10096Y-125892D2*
X11689D1*
X-10096Y-126523D2*
X11689D1*
X-10096Y-127155D2*
X11689D1*
X-10096Y-127787D2*
X11689D1*
X-10096Y-128418D2*
X11689D1*
X-10096Y-129050D2*
X11689D1*
X-10096Y-129682D2*
X11689D1*
X-10096Y-130313D2*
X11689D1*
X-10096Y-130945D2*
X11689D1*
X-10096Y-131577D2*
X11689D1*
X-10096Y-132208D2*
X11689D1*
X-10160Y-36512D2*
Y-132715D1*
X11748D1*
X11747Y-86995D1*
X5715D1*
X5447Y-86840D1*
X5398Y-86679D1*
X5080Y-36195D1*
X1905D1*
Y-86668D1*
X1876Y-86810D1*
X1632Y-86992D1*
X-7937Y-86995D1*
X-8205Y-86840D1*
X-8255Y-86677D1*
Y-36195D1*
X-10160D1*
Y-36512D1*
D14*
X-7937Y-38100D3*
X-5137D3*
X1587D3*
X-1212D3*
X5398D3*
X8197D3*
X5398Y-83820D3*
X8197D3*
X5398Y-68580D3*
X8197D3*
X-7937Y-48260D3*
X-5137D3*
X1587D3*
X-1212D3*
X5398D3*
X8197D3*
X-7937Y-83820D3*
X-5137D3*
X5398Y-78740D3*
X8197D3*
X-7937Y-43180D3*
X-5137D3*
X1587D3*
X-1212D3*
X5398D3*
X8197D3*
X1587Y-83820D3*
X-1212D3*
X5398Y-73660D3*
X8197D3*
X-7937Y-53340D3*
X-5137D3*
X1587D3*
X-1212D3*
X5398D3*
X8197D3*
X-7937Y-68580D3*
X-5137D3*
X1587D3*
X-1212D3*
X-7937Y-58420D3*
X-5137D3*
X1587D3*
X-1212D3*
X5398D3*
X8197D3*
X-7937Y-73660D3*
X-5137D3*
X1587D3*
X-1212D3*
X-7937Y-63500D3*
X-5137D3*
X1587D3*
X-1212D3*
X5398D3*
X8197D3*
X-7937Y-78740D3*
X-5137D3*
X1587D3*
X-1212D3*
D15*
X0Y-126000D3*
Y0D3*
M02*
