G04 DipTrace 2.3.0.3*
%INTopMask.gbr*%
%MOMM*%
%ADD18R,13.2X13.2*%
%ADD20R,1.8X2.9*%
%FSLAX53Y53*%
G04*
G71*
G90*
G75*
G01*
%LNTopMask*%
%LPD*%
D20*
X-7937Y-38100D3*
X-5137D3*
X1587D3*
X-1212D3*
X5398D3*
X8197D3*
X5398Y-83820D3*
X8197D3*
X5398Y-68580D3*
X8197D3*
X-7937Y-48260D3*
X-5137D3*
X1587D3*
X-1212D3*
X5398D3*
X8197D3*
X-7937Y-83820D3*
X-5137D3*
X5398Y-78740D3*
X8197D3*
X-7937Y-43180D3*
X-5137D3*
X1587D3*
X-1212D3*
X5398D3*
X8197D3*
X1587Y-83820D3*
X-1212D3*
X5398Y-73660D3*
X8197D3*
X-7937Y-53340D3*
X-5137D3*
X1587D3*
X-1212D3*
X5398D3*
X8197D3*
X-7937Y-68580D3*
X-5137D3*
X1587D3*
X-1212D3*
X-7937Y-58420D3*
X-5137D3*
X1587D3*
X-1212D3*
X5398D3*
X8197D3*
X-7937Y-73660D3*
X-5137D3*
X1587D3*
X-1212D3*
X-7937Y-63500D3*
X-5137D3*
X1587D3*
X-1212D3*
X5398D3*
X8197D3*
X-7937Y-78740D3*
X-5137D3*
X1587D3*
X-1212D3*
D18*
X0Y-126000D3*
Y0D3*
G36*
X-10000Y7000D2*
D1*
Y6000D1*
D1*
Y7000D1*
G37*
G36*
X-10795Y7620D2*
X12700D1*
Y-9525D1*
X-10795D1*
Y7620D1*
G37*
G36*
Y-116205D2*
X12700D1*
Y-133350D1*
X-10795D1*
Y-116205D1*
G37*
M02*
