G04 DipTrace 2.3.0.3*
%INBottomMask.gbr*%
%MOMM*%
%ADD36R,1.8X1.8*%
%ADD44C,1.7*%
%ADD53C,20.2*%
%ADD55O,2.2X1.2*%
%ADD58C,1.8*%
%ADD60C,2.0*%
%ADD62R,2.0X2.0*%
%ADD69C,1.7*%
%ADD71R,1.7X1.7*%
%ADD73C,3.2*%
%ADD75C,1.47*%
%ADD77C,1.47*%
%ADD87C,2.6*%
%ADD89R,2.6X2.6*%
%ADD91O,9.2X5.2*%
%FSLAX53Y53*%
G04*
G71*
G90*
G75*
G01*
%LNBotMask*%
%LPD*%
D44*
X5950Y23100D3*
X4040D3*
X7860D3*
D91*
X10950Y1700D3*
X950D3*
D89*
X19360Y1750D3*
D87*
X24810D3*
X30260D3*
D77*
X28892Y25717D3*
D75*
X21273D3*
D77*
X18097D3*
D75*
X10478D3*
D77*
X21273Y28258D3*
D75*
X28892D3*
D77*
X15557Y32702D3*
D75*
X7938D3*
D77*
X15557Y30480D3*
D75*
X7938D3*
D77*
X6032D3*
D75*
X-1587D3*
D77*
X6032Y32702D3*
D75*
X-1587D3*
D77*
X18097Y27940D3*
D75*
X10478D3*
D73*
X53340Y33020D3*
Y27940D3*
D71*
X39370Y25718D3*
D69*
Y28258D3*
Y30798D3*
Y33337D3*
X46990D3*
Y30798D3*
Y28258D3*
Y25718D3*
D62*
X2858Y43656D3*
D60*
Y38576D3*
Y41116D3*
D58*
X-7461Y44450D3*
D36*
Y38100D3*
G36*
X27303Y44732D2*
X27611Y44424D1*
Y43841D1*
X27303Y43533D1*
X25720D1*
X25411Y43841D1*
Y44424D1*
X25720Y44732D1*
X27303D1*
G37*
D55*
X26511Y42862D3*
Y41592D3*
D73*
X53340Y38100D3*
Y43180D3*
Y48260D3*
Y53340D3*
X-20320Y29210D3*
Y34290D3*
D53*
X-14605Y12700D3*
X47625D3*
D73*
X-20320Y39370D3*
Y44450D3*
M02*
