G04 DipTrace 2.3.0.3*
%INBottom.gbr*%
%MOMM*%
%ADD13C,0.5*%
%ADD15C,0.6*%
%ADD18C,0.635*%
%ADD19C,1.5*%
%ADD20O,9.0X5.0*%
%ADD21R,2.4X2.4*%
%ADD22C,2.4*%
%ADD28C,1.27*%
%ADD29C,1.27*%
%ADD30C,3.0*%
%ADD31R,1.5X1.5*%
%ADD32C,1.5*%
%ADD36R,1.8X1.8*%
%ADD37C,1.8*%
%ADD38C,1.6*%
%ADD39R,1.6X1.6*%
%ADD40O,2.0X1.0*%
%ADD41C,20.0*%
%ADD42C,1.016*%
%FSLAX53Y53*%
G04*
G71*
G90*
G75*
G01*
%LNBottom*%
%LPD*%
X8255Y35401D2*
D13*
Y39529D1*
X6667Y41116D1*
X2857D1*
X-159D1*
X-794Y41751D1*
Y49213D1*
X1429Y51435D1*
X46990D1*
X50006Y48419D1*
X53181D1*
X53340Y48260D1*
X5950Y23100D2*
D15*
Y25400D1*
X8255D1*
X10160Y23495D1*
X13970D1*
X16192Y21273D1*
Y15240D1*
X19367D1*
Y7938D1*
X20638Y6668D1*
X23495D1*
X25082D1*
Y13335D1*
X27305Y15558D1*
Y19050D1*
Y21273D1*
X7620Y25400D2*
X6668D1*
X6033Y24765D1*
Y23183D1*
X5950Y23100D1*
X30260Y1750D2*
X32385D1*
Y4763D1*
X28258Y8890D1*
X25082D1*
Y6668D1*
X16192Y18097D2*
Y21273D1*
X23495Y22543D2*
X26035D1*
X27305Y21273D1*
X28893Y28258D2*
X27940D1*
X26987Y27305D1*
Y21590D1*
X27305Y21273D1*
X37465Y28258D2*
X28893D1*
X26511Y41592D2*
X25876D1*
X30321Y37148D1*
Y35719D1*
X28893Y34290D1*
Y28258D1*
X43180Y42862D2*
X44768D1*
X32544Y30639D1*
X28893Y34290D1*
X43180Y42862D2*
Y49689D1*
X20479D1*
X2857Y43656D2*
X7461D1*
X13653Y37465D1*
X26511D1*
Y41592D1*
X35084Y43974D2*
D13*
Y43815D1*
X38576Y40322D1*
X23654Y39529D2*
X22860D1*
X22066Y40322D1*
X17780D1*
X17621Y40481D1*
D42*
X19367Y15240D3*
X27305Y15558D3*
X23495Y6668D3*
X25082D3*
X27305Y21273D3*
Y19050D3*
X16192Y18097D3*
X7620Y25400D3*
X23495Y22543D3*
X43180Y42862D3*
X30321Y37148D3*
X20479Y49689D3*
X35084Y43974D3*
X38576Y40322D3*
X23654Y39529D3*
X17621Y40481D3*
X8255Y35401D3*
X8890Y0D3*
X10160D3*
X11430D3*
X12700D3*
X14605Y1905D3*
X6985D3*
X8890Y3175D3*
X10160D3*
X11430D3*
X12700D3*
X4445Y1905D3*
X3175Y3175D3*
X1905D3*
X635D3*
X-635D3*
X-1905D3*
X3175Y0D3*
X1905D3*
X635D3*
X-635D3*
X-1905D3*
X-2540Y1905D3*
X4445Y635D3*
X-2540D3*
X7620D3*
X13970D3*
Y3175D3*
X7620D3*
X4445D3*
X-14605Y18732D3*
X-12700Y18415D3*
X-16510D3*
X-8572Y12700D3*
X-14605Y6668D3*
X-20638Y12700D3*
X-12700Y6985D3*
X-16510D3*
X-8890Y10795D3*
Y14605D3*
X-20320D3*
Y10795D3*
X-18097Y17621D3*
X-19367Y16351D3*
X-11112Y17621D3*
X-9842Y16351D3*
X-19367Y9049D3*
X-18097Y7779D3*
X-11112D3*
X-9842Y9049D3*
X47625Y18732D3*
X49530Y18415D3*
X45720D3*
X53658Y12700D3*
X47625Y6668D3*
X41592Y12700D3*
X49530Y6985D3*
X45720D3*
X53340Y10795D3*
Y14605D3*
X41910D3*
Y10795D3*
X44133Y17621D3*
X42862Y16351D3*
X51117Y17621D3*
X52388Y16351D3*
X42862Y9049D3*
X44133Y7779D3*
X51117D3*
X52388Y9049D3*
X29210Y-635D3*
X30480D3*
X31750D3*
X33020D3*
Y635D3*
Y1905D3*
Y3175D3*
Y4445D3*
X26670Y-635D3*
X25400D3*
X24130D3*
X22860D3*
Y635D3*
Y1905D3*
X31750Y4445D3*
X30480D3*
X-24702Y22863D2*
D18*
X-4960D1*
X-24702Y22232D2*
X-4325D1*
X-24702Y21600D2*
X-3700D1*
X-24702Y20968D2*
X-3065D1*
X-24702Y20337D2*
X-2430D1*
X-24702Y19705D2*
X13276D1*
X-24702Y19073D2*
X13276D1*
X-24702Y18442D2*
X13276D1*
X-24702Y17810D2*
X13276D1*
X-24702Y17178D2*
X13276D1*
X-24702Y16547D2*
X13276D1*
X-24702Y15915D2*
X13276D1*
X-24702Y15283D2*
X13276D1*
X-24702Y14652D2*
X13276D1*
X-24702Y14020D2*
X13276D1*
X-24702Y13388D2*
X13276D1*
X-24702Y12757D2*
X13276D1*
X-24702Y12125D2*
X13276D1*
X-24702Y11493D2*
X13276D1*
X-24702Y10862D2*
X13713D1*
X-24702Y10230D2*
X14338D1*
X-24702Y9598D2*
X14973D1*
X-24702Y8967D2*
X15177D1*
X-24702Y8335D2*
X15177D1*
X-24702Y7703D2*
X15177D1*
X-24702Y7072D2*
X15177D1*
X-24702Y6440D2*
X15177D1*
X-24702Y5808D2*
X15177D1*
X-24702Y5177D2*
X15177D1*
X-24702Y4545D2*
X-4821D1*
X6726D2*
X15177D1*
X-24702Y3913D2*
X-4821D1*
X6726D2*
X15177D1*
X-24702Y3282D2*
X-4821D1*
X6726D2*
X15177D1*
X-24702Y2650D2*
X-4821D1*
X6726D2*
X15177D1*
X-4763Y2857D2*
Y4753D1*
X-4734Y4895D1*
X-4490Y5077D1*
X6350Y5080D1*
X6618Y4925D1*
X6668Y4763D1*
Y2222D1*
X15240D1*
Y9396D1*
X13425Y11215D1*
X13335Y11430D1*
Y20320D1*
X-2231Y20325D1*
X-2447Y20413D1*
X-5527Y23493D1*
X-24765Y23495D1*
Y2540D1*
X-4763D1*
Y2857D1*
X21649Y2543D2*
X26924D1*
X21649Y1912D2*
X26924D1*
X-3429Y1280D2*
X5339D1*
X21649D2*
X26924D1*
X-3429Y648D2*
X5339D1*
X21649D2*
X26924D1*
X-3429Y17D2*
X5339D1*
X21649D2*
X26924D1*
X-3429Y-615D2*
X5339D1*
X21649D2*
X26924D1*
X-3429Y-1247D2*
X5339D1*
X21649D2*
X26924D1*
X-3429Y-1878D2*
X5339D1*
X21649D2*
X26924D1*
X-3429Y-2510D2*
X26924D1*
X-3429Y-3142D2*
X26924D1*
X-3429Y-3773D2*
X26924D1*
X-3429Y-4405D2*
X26924D1*
X-3429Y-5037D2*
X26924D1*
X-3429Y-5668D2*
X26924D1*
X-3429Y-6300D2*
X26924D1*
X-3429Y-6932D2*
X26924D1*
X-3429Y-7563D2*
X26924D1*
X-3429Y-8195D2*
X26924D1*
X-3429Y-8827D2*
X26924D1*
X-3429Y-9458D2*
X26924D1*
X-3429Y-10090D2*
X26924D1*
X-3429Y-10722D2*
X26924D1*
X-3429Y-11353D2*
X26924D1*
X-3429Y-11985D2*
X26924D1*
X5398Y-1587D2*
Y1587D1*
X-3492D1*
Y-12065D1*
X26987D1*
Y3175D1*
X21590D1*
Y-1905D1*
X21435Y-2173D1*
X21273Y-2222D1*
X5715D1*
X5447Y-2067D1*
X5398Y-1905D1*
Y-1587D1*
X42316Y21911D2*
X57721D1*
X41849Y21279D2*
X57721D1*
X41393Y20648D2*
X57721D1*
X40937Y20016D2*
X57721D1*
X40480Y19384D2*
X57721D1*
X40024Y18753D2*
X57721D1*
X39558Y18121D2*
X57721D1*
X39101Y17489D2*
X57721D1*
X38645Y16857D2*
X57721D1*
X38188Y16226D2*
X57721D1*
X37722Y15594D2*
X57721D1*
X37266Y14962D2*
X57721D1*
X36809Y14331D2*
X57721D1*
X36353Y13699D2*
X57721D1*
X35896Y13067D2*
X57721D1*
X35430Y12436D2*
X57721D1*
X34974Y11804D2*
X57721D1*
X34517Y11173D2*
X57721D1*
X34061Y10541D2*
X57721D1*
X33604Y9909D2*
X57721D1*
X33138Y9278D2*
X57721D1*
X32682Y8646D2*
X57721D1*
X32225Y8014D2*
X57721D1*
X31769Y7383D2*
X57721D1*
X31312Y6751D2*
X57721D1*
X30846Y6119D2*
X57721D1*
X30390Y5487D2*
X57721D1*
X29933Y4856D2*
X57721D1*
X29477Y4224D2*
X57721D1*
X29020Y3592D2*
X57721D1*
X28639Y2961D2*
X57721D1*
X28639Y2329D2*
X57721D1*
X28639Y1697D2*
X57721D1*
X28639Y1066D2*
X57721D1*
X28639Y434D2*
X57721D1*
X28639Y-197D2*
X57721D1*
X28639Y-829D2*
X57721D1*
X28639Y-1461D2*
X57721D1*
X28639Y-2092D2*
X57721D1*
X28639Y-2724D2*
X57721D1*
X28639Y-3356D2*
X57721D1*
X28639Y-3987D2*
X57721D1*
X28639Y-4619D2*
X57721D1*
X28639Y-5251D2*
X57721D1*
X28639Y-5883D2*
X57721D1*
X28639Y-6514D2*
X57721D1*
X28639Y-7146D2*
X57721D1*
X28639Y-7778D2*
X57721D1*
X28639Y-8409D2*
X57721D1*
X28639Y-9041D2*
X57721D1*
X28639Y-9673D2*
X57721D1*
X28639Y-10304D2*
X57721D1*
X28639Y-10936D2*
X57721D1*
X28639Y-11567D2*
X57721D1*
X42703Y22537D2*
X28575Y3072D1*
Y-12065D1*
X57785D1*
Y22543D1*
X42714D1*
X1968Y49851D2*
X47209D1*
X1968Y49219D2*
X47834D1*
X1968Y48587D2*
X48469D1*
X1968Y47956D2*
X49104D1*
X1968Y47324D2*
X49471D1*
X1968Y46692D2*
X49471D1*
X1968Y46061D2*
X49471D1*
X1968Y45429D2*
X49471D1*
X1968Y44798D2*
X24915D1*
X28108D2*
X34172D1*
X35996D2*
X49471D1*
X1968Y44166D2*
X24776D1*
X28247D2*
X33854D1*
X36313D2*
X49471D1*
X1968Y43534D2*
X24875D1*
X28147D2*
X33924D1*
X36730D2*
X49471D1*
X1968Y42903D2*
X24776D1*
X28247D2*
X34519D1*
X37365D2*
X49471D1*
X3988Y42271D2*
X24935D1*
X28088D2*
X35263D1*
X38000D2*
X49471D1*
X7510Y41639D2*
X17325D1*
X17918D2*
X35888D1*
X38625D2*
X49471D1*
X8145Y41008D2*
X16501D1*
X22750D2*
X36523D1*
X39597D2*
X49471D1*
X8780Y40376D2*
X16382D1*
X24536D2*
X37158D1*
X39816D2*
X49471D1*
X3978Y39744D2*
X6668D1*
X9216D2*
X16640D1*
X24873D2*
X37486D1*
X39667D2*
X49471D1*
X4394Y39112D2*
X7274D1*
X9236D2*
X21909D1*
X24824D2*
X49471D1*
X4494Y38481D2*
X7274D1*
X9236D2*
X23049D1*
X24258D2*
X49471D1*
X4315Y37849D2*
X7274D1*
X9236D2*
X49471D1*
X3710Y37217D2*
X7274D1*
X9236D2*
X49471D1*
X1968Y36586D2*
X7274D1*
X9236D2*
X49471D1*
X1968Y35954D2*
X7145D1*
X9365D2*
X49471D1*
X1968Y35322D2*
X7016D1*
X9494D2*
X49471D1*
X1968Y34691D2*
X7244D1*
X9266D2*
X38865D1*
X39875D2*
X46485D1*
X47495D2*
X49471D1*
X1968Y34059D2*
X38081D1*
X40659D2*
X45701D1*
X48279D2*
X49471D1*
X1968Y33428D2*
X4883D1*
X9087D2*
X14408D1*
X16707D2*
X37883D1*
X40857D2*
X45503D1*
X48477D2*
X49471D1*
X1968Y32796D2*
X4664D1*
X9306D2*
X14189D1*
X16926D2*
X37992D1*
X40748D2*
X45612D1*
X48368D2*
X49471D1*
X1968Y32164D2*
X4773D1*
X9197D2*
X14298D1*
X16817D2*
X38498D1*
X40242D2*
X46118D1*
X47862D2*
X49471D1*
X1968Y31533D2*
X5190D1*
X8780D2*
X14715D1*
X16400D2*
X38091D1*
X40649D2*
X45711D1*
X48269D2*
X49471D1*
X1968Y30901D2*
X4734D1*
X9236D2*
X14259D1*
X16856D2*
X37893D1*
X40847D2*
X45513D1*
X48467D2*
X49471D1*
X1968Y30269D2*
X4674D1*
X9296D2*
X14199D1*
X16916D2*
X37982D1*
X40758D2*
X45602D1*
X48378D2*
X49471D1*
X1968Y29638D2*
X4972D1*
X8998D2*
X14497D1*
X16618D2*
X38488D1*
X40252D2*
X46108D1*
X47872D2*
X49471D1*
X1968Y29006D2*
X9655D1*
X11300D2*
X17275D1*
X18920D2*
X20132D1*
X22413D2*
X45721D1*
X48259D2*
X49471D1*
X1968Y28374D2*
X9179D1*
X11776D2*
X16799D1*
X19396D2*
X19904D1*
X22641D2*
X45513D1*
X48467D2*
X49471D1*
X1968Y27742D2*
X9119D1*
X11836D2*
X16739D1*
X19456D2*
X20004D1*
X22542D2*
X45602D1*
X48378D2*
X49471D1*
X1968Y27111D2*
X9407D1*
X11548D2*
X17027D1*
X19168D2*
X20579D1*
X21966D2*
X37883D1*
X40857D2*
X46088D1*
X47892D2*
X49471D1*
X1968Y26479D2*
X9347D1*
X11608D2*
X16967D1*
X19228D2*
X20142D1*
X22403D2*
X27762D1*
X30023D2*
X37883D1*
X40857D2*
X45721D1*
X48259D2*
X49471D1*
X1968Y25847D2*
X9109D1*
X11846D2*
X16729D1*
X19466D2*
X19911D1*
X22641D2*
X27524D1*
X30261D2*
X37883D1*
X40857D2*
X45513D1*
X48467D2*
X49471D1*
X1968Y25216D2*
X9208D1*
X11746D2*
X16828D1*
X19366D2*
X20004D1*
X22542D2*
X27624D1*
X30162D2*
X37883D1*
X40857D2*
X45592D1*
X48388D2*
X49471D1*
X1968Y24584D2*
X9764D1*
X11191D2*
X17384D1*
X18811D2*
X20559D1*
X21986D2*
X28179D1*
X29606D2*
X37883D1*
X40857D2*
X46068D1*
X47912D2*
X49471D1*
X1968Y23952D2*
X2839D1*
X5238D2*
X6659D1*
X9058D2*
X41554D1*
X1968Y23321D2*
X2571D1*
X5506D2*
X6391D1*
X9326D2*
X41097D1*
X1968Y22689D2*
X2610D1*
X5466D2*
X6430D1*
X9286D2*
X40641D1*
X1968Y22058D2*
X3007D1*
X5069D2*
X6827D1*
X8889D2*
X40185D1*
X14981Y21426D2*
X39728D1*
X14981Y20794D2*
X39272D1*
X14981Y20163D2*
X38815D1*
X14981Y19531D2*
X38349D1*
X14981Y18899D2*
X37893D1*
X14981Y18268D2*
X37436D1*
X14981Y17636D2*
X36980D1*
X14981Y17004D2*
X36523D1*
X14981Y16372D2*
X36067D1*
X14981Y15741D2*
X35611D1*
X14981Y15109D2*
X35154D1*
X14981Y14477D2*
X34698D1*
X14981Y13846D2*
X34241D1*
X14981Y13214D2*
X33775D1*
X14981Y12582D2*
X33319D1*
X15229Y11951D2*
X32862D1*
X15864Y11319D2*
X32406D1*
X16499Y10688D2*
X31949D1*
X16886Y10056D2*
X31493D1*
X16886Y9424D2*
X31037D1*
X16886Y8793D2*
X30580D1*
X16886Y8161D2*
X30124D1*
X16886Y7529D2*
X29667D1*
X16886Y6898D2*
X29201D1*
X16886Y6266D2*
X28745D1*
X5428Y22785D2*
X5324Y22486D1*
X5156Y22217D1*
X4933Y21992D1*
X4807Y21912D1*
X7094Y21908D1*
X6987Y21976D1*
X6760Y22197D1*
X6588Y22463D1*
X6478Y22761D1*
X6437Y23075D1*
X6467Y23390D1*
X6566Y23691D1*
X6729Y23963D1*
X6948Y24192D1*
X7212Y24367D1*
X7508Y24479D1*
X7822Y24522D1*
X8138Y24495D1*
X8440Y24399D1*
X8713Y24239D1*
X8944Y24022D1*
X9121Y23759D1*
X9236Y23464D1*
X9283Y23100D1*
X9248Y22785D1*
X9144Y22486D1*
X8976Y22217D1*
X8753Y21992D1*
X8627Y21912D1*
X14605Y21908D1*
X14873Y21752D1*
X14923Y21590D1*
Y12194D1*
X16737Y10375D1*
X16827Y10160D1*
Y5715D1*
X28406D1*
X32042Y10727D1*
X41661Y24003D1*
X41865Y24127D1*
X49530Y24130D1*
Y47635D1*
X49354Y47766D1*
X46639Y50481D1*
X1905Y50482D1*
Y42376D1*
X2140Y42516D1*
X2436Y42632D1*
X2748Y42685D1*
X3065Y42675D1*
X3373Y42602D1*
X3661Y42469D1*
X3915Y42280D1*
X4132Y42036D1*
X6667Y42039D1*
X6979Y41985D1*
X7290Y41798D1*
X8908Y40181D1*
X9089Y39923D1*
X9177Y39571D1*
X9178Y36145D1*
X9357Y35826D1*
X9436Y35401D1*
X9393Y35088D1*
X9269Y34796D1*
X9072Y34549D1*
X8816Y34362D1*
X8520Y34251D1*
X8205Y34221D1*
X7893Y34277D1*
X7608Y34414D1*
X7369Y34621D1*
X7193Y34884D1*
X7094Y35185D1*
X7078Y35501D1*
X7147Y35810D1*
X7330Y36126D1*
X7332Y39142D1*
X6290Y40188D1*
X4137Y40193D1*
X3945Y39980D1*
X3781Y39852D1*
X3915Y39740D1*
X4127Y39504D1*
X4288Y39231D1*
X4390Y38931D1*
X4430Y38576D1*
X4398Y38261D1*
X4304Y37958D1*
X4151Y37681D1*
X3945Y37440D1*
X3695Y37245D1*
X3411Y37104D1*
X3105Y37023D1*
X2788Y37005D1*
X2475Y37051D1*
X2177Y37158D1*
X1899Y37331D1*
X1905Y33020D1*
Y21908D1*
X3264D1*
X2940Y22197D1*
X2768Y22463D1*
X2658Y22761D1*
X2617Y23075D1*
X2647Y23390D1*
X2746Y23691D1*
X2909Y23963D1*
X3128Y24192D1*
X3392Y24367D1*
X3688Y24479D1*
X4002Y24522D1*
X4318Y24495D1*
X4620Y24399D1*
X4893Y24239D1*
X5124Y24022D1*
X5301Y23759D1*
X5416Y23464D1*
X5463Y23100D1*
X5428Y22785D1*
X30162Y25403D2*
X30049Y25107D1*
X29869Y24847D1*
X29631Y24638D1*
X29350Y24492D1*
X29042Y24418D1*
X28725Y24420D1*
X28418Y24499D1*
X28139Y24649D1*
X27904Y24861D1*
X27727Y25124D1*
X27619Y25421D1*
X27585Y25736D1*
X27628Y26050D1*
X27745Y26344D1*
X27929Y26602D1*
X28170Y26808D1*
X28453Y26949D1*
X28762Y27019D1*
X29079Y27012D1*
X29384Y26929D1*
X29661Y26776D1*
X29893Y26560D1*
X30066Y26295D1*
X30170Y25996D1*
X30200Y25717D1*
X30162Y25403D1*
X22542D2*
X22429Y25107D1*
X22249Y24847D1*
X22011Y24638D1*
X21730Y24492D1*
X21422Y24418D1*
X21105Y24420D1*
X20798Y24499D1*
X20519Y24649D1*
X20284Y24861D1*
X20107Y25124D1*
X19999Y25421D1*
X19965Y25736D1*
X20008Y26050D1*
X20125Y26344D1*
X20309Y26602D1*
X20550Y26808D1*
X20833Y26949D1*
X20978Y26982D1*
X20798Y27039D1*
X20519Y27188D1*
X20284Y27401D1*
X20107Y27664D1*
X19999Y27961D1*
X19965Y28276D1*
X20008Y28590D1*
X20125Y28884D1*
X20309Y29142D1*
X20550Y29348D1*
X20833Y29489D1*
X21142Y29559D1*
X21459Y29552D1*
X21764Y29469D1*
X22041Y29316D1*
X22273Y29100D1*
X22446Y28835D1*
X22550Y28536D1*
X22580Y28258D1*
X22542Y27943D1*
X22429Y27647D1*
X22249Y27387D1*
X22011Y27178D1*
X21730Y27032D1*
X21566Y26993D1*
X21764Y26929D1*
X22041Y26776D1*
X22273Y26560D1*
X22446Y26295D1*
X22550Y25996D1*
X22580Y25717D1*
X22542Y25403D1*
X19367D2*
X19254Y25107D1*
X19074Y24847D1*
X18836Y24638D1*
X18555Y24492D1*
X18247Y24418D1*
X17930Y24420D1*
X17623Y24499D1*
X17344Y24649D1*
X17109Y24861D1*
X16932Y25124D1*
X16824Y25421D1*
X16790Y25736D1*
X16833Y26050D1*
X16950Y26344D1*
X17134Y26602D1*
X17419Y26830D1*
X17109Y27083D1*
X16932Y27346D1*
X16824Y27644D1*
X16790Y27959D1*
X16833Y28272D1*
X16950Y28567D1*
X17134Y28824D1*
X17375Y29030D1*
X17658Y29172D1*
X17967Y29241D1*
X18284Y29235D1*
X18589Y29152D1*
X18866Y28998D1*
X19098Y28782D1*
X19271Y28517D1*
X19375Y28218D1*
X19405Y27940D1*
X19367Y27626D1*
X19254Y27330D1*
X19074Y27069D1*
X18774Y26828D1*
X18866Y26776D1*
X19098Y26560D1*
X19271Y26295D1*
X19375Y25996D1*
X19405Y25717D1*
X19367Y25403D1*
X11747D2*
X11634Y25107D1*
X11454Y24847D1*
X11216Y24638D1*
X10935Y24492D1*
X10627Y24418D1*
X10310Y24420D1*
X10003Y24499D1*
X9724Y24649D1*
X9489Y24861D1*
X9312Y25124D1*
X9204Y25421D1*
X9170Y25736D1*
X9213Y26050D1*
X9330Y26344D1*
X9514Y26602D1*
X9799Y26830D1*
X9489Y27083D1*
X9312Y27346D1*
X9204Y27644D1*
X9170Y27959D1*
X9213Y28272D1*
X9330Y28567D1*
X9514Y28824D1*
X9755Y29030D1*
X10038Y29172D1*
X10347Y29241D1*
X10664Y29235D1*
X10969Y29152D1*
X11246Y28998D1*
X11478Y28782D1*
X11651Y28517D1*
X11755Y28218D1*
X11785Y27940D1*
X11747Y27626D1*
X11634Y27330D1*
X11454Y27069D1*
X11154Y26828D1*
X11246Y26776D1*
X11478Y26560D1*
X11651Y26295D1*
X11755Y25996D1*
X11785Y25717D1*
X11747Y25403D1*
X16827Y32388D2*
X16714Y32092D1*
X16534Y31832D1*
X16234Y31591D1*
X16326Y31538D1*
X16558Y31322D1*
X16731Y31057D1*
X16835Y30758D1*
X16865Y30480D1*
X16827Y30166D1*
X16714Y29870D1*
X16534Y29610D1*
X16296Y29400D1*
X16015Y29255D1*
X15707Y29181D1*
X15390Y29183D1*
X15083Y29261D1*
X14804Y29411D1*
X14569Y29623D1*
X14392Y29886D1*
X14284Y30184D1*
X14250Y30499D1*
X14293Y30812D1*
X14410Y31107D1*
X14594Y31364D1*
X14879Y31592D1*
X14569Y31846D1*
X14392Y32109D1*
X14284Y32406D1*
X14250Y32721D1*
X14293Y33035D1*
X14410Y33329D1*
X14594Y33587D1*
X14835Y33793D1*
X15118Y33934D1*
X15427Y34004D1*
X15744Y33997D1*
X16049Y33914D1*
X16326Y33761D1*
X16558Y33545D1*
X16731Y33280D1*
X16835Y32981D1*
X16865Y32702D1*
X16827Y32388D1*
X9207D2*
X9094Y32092D1*
X8914Y31832D1*
X8614Y31591D1*
X8706Y31538D1*
X8938Y31322D1*
X9111Y31057D1*
X9215Y30758D1*
X9245Y30480D1*
X9207Y30166D1*
X9094Y29870D1*
X8914Y29610D1*
X8676Y29400D1*
X8395Y29255D1*
X8087Y29181D1*
X7770Y29183D1*
X7463Y29261D1*
X7184Y29411D1*
X6986Y29590D1*
X6771Y29400D1*
X6490Y29255D1*
X6182Y29181D1*
X5865Y29183D1*
X5558Y29261D1*
X5279Y29411D1*
X5044Y29623D1*
X4867Y29886D1*
X4759Y30184D1*
X4725Y30499D1*
X4768Y30812D1*
X4885Y31107D1*
X5069Y31364D1*
X5354Y31592D1*
X5044Y31846D1*
X4867Y32109D1*
X4759Y32406D1*
X4725Y32721D1*
X4768Y33035D1*
X4885Y33329D1*
X5069Y33587D1*
X5310Y33793D1*
X5593Y33934D1*
X5902Y34004D1*
X6219Y33997D1*
X6524Y33914D1*
X6801Y33761D1*
X6982Y33592D1*
X7215Y33793D1*
X7498Y33934D1*
X7807Y34004D1*
X8124Y33997D1*
X8429Y33914D1*
X8706Y33761D1*
X8938Y33545D1*
X9111Y33280D1*
X9215Y32981D1*
X9245Y32702D1*
X9207Y32388D1*
X38265Y27140D2*
X40793D1*
Y24295D1*
X37947D1*
Y27140D1*
X38265D1*
X40758Y30483D2*
X40654Y30183D1*
X40486Y29915D1*
X40263Y29690D1*
X39995Y29519D1*
X39697Y29413D1*
X39383Y29375D1*
X39067Y29407D1*
X38767Y29509D1*
X38497Y29674D1*
X38270Y29895D1*
X38098Y30161D1*
X37988Y30458D1*
X37947Y30772D1*
X37977Y31088D1*
X38076Y31389D1*
X38239Y31661D1*
X38458Y31889D1*
X38731Y32068D1*
X38497Y32214D1*
X38270Y32435D1*
X38098Y32701D1*
X37988Y32998D1*
X37947Y33312D1*
X37977Y33628D1*
X38076Y33929D1*
X38239Y34201D1*
X38458Y34429D1*
X38722Y34604D1*
X39018Y34716D1*
X39332Y34760D1*
X39648Y34733D1*
X39950Y34637D1*
X40223Y34476D1*
X40454Y34259D1*
X40631Y33997D1*
X40746Y33701D1*
X40793Y33337D1*
X40758Y33023D1*
X40654Y32723D1*
X40486Y32455D1*
X40263Y32230D1*
X40004Y32065D1*
X40223Y31936D1*
X40454Y31719D1*
X40631Y31457D1*
X40746Y31161D1*
X40793Y30798D1*
X40758Y30483D1*
X48378Y33023D2*
X48274Y32723D1*
X48106Y32455D1*
X47883Y32230D1*
X47624Y32065D1*
X47843Y31936D1*
X48074Y31719D1*
X48251Y31457D1*
X48366Y31161D1*
X48413Y30798D1*
X48378Y30483D1*
X48274Y30183D1*
X48106Y29915D1*
X47883Y29690D1*
X47624Y29525D1*
X47843Y29396D1*
X48074Y29179D1*
X48251Y28917D1*
X48366Y28621D1*
X48413Y28258D1*
X48378Y27943D1*
X48274Y27643D1*
X48106Y27375D1*
X47883Y27150D1*
X47624Y26985D1*
X47843Y26856D1*
X48074Y26639D1*
X48251Y26377D1*
X48366Y26081D1*
X48413Y25717D1*
X48378Y25403D1*
X48274Y25103D1*
X48106Y24835D1*
X47883Y24610D1*
X47615Y24439D1*
X47317Y24333D1*
X47003Y24295D1*
X46687Y24327D1*
X46387Y24429D1*
X46117Y24594D1*
X45890Y24815D1*
X45718Y25081D1*
X45608Y25378D1*
X45567Y25692D1*
X45597Y26008D1*
X45696Y26309D1*
X45859Y26581D1*
X46078Y26809D1*
X46351Y26988D1*
X46117Y27134D1*
X45890Y27355D1*
X45718Y27621D1*
X45608Y27918D1*
X45567Y28232D1*
X45597Y28548D1*
X45696Y28849D1*
X45859Y29121D1*
X46078Y29350D1*
X46351Y29528D1*
X46117Y29674D1*
X45890Y29895D1*
X45718Y30161D1*
X45608Y30458D1*
X45567Y30772D1*
X45597Y31088D1*
X45696Y31389D1*
X45859Y31661D1*
X46078Y31889D1*
X46351Y32068D1*
X46117Y32214D1*
X45890Y32435D1*
X45718Y32701D1*
X45608Y32998D1*
X45567Y33312D1*
X45597Y33628D1*
X45696Y33929D1*
X45859Y34201D1*
X46078Y34429D1*
X46342Y34604D1*
X46638Y34716D1*
X46952Y34760D1*
X47268Y34733D1*
X47570Y34637D1*
X47843Y34476D1*
X48074Y34259D1*
X48251Y33997D1*
X48366Y33701D1*
X48413Y33337D1*
X48378Y33023D1*
X27904Y44942D2*
X28121Y44666D1*
X28184Y44383D1*
Y43883D1*
X28114Y43586D1*
X28122Y43240D1*
X28184Y42862D1*
X28141Y42549D1*
X28016Y42258D1*
X27818Y42011D1*
X27561Y41827D1*
X27264Y41717D1*
X27011Y41690D1*
X26011Y41700D1*
X25949Y41691D1*
X25638Y41751D1*
X25354Y41891D1*
X25118Y42102D1*
X24947Y42369D1*
X24854Y42671D1*
X24845Y42987D1*
X24921Y43295D1*
X25003Y43441D1*
X24901Y43599D1*
X24838Y43883D1*
Y44383D1*
X24904Y44673D1*
X25035Y44858D1*
X25285Y45108D1*
X25478Y45243D1*
X25761Y45305D1*
X27261D1*
X27552Y45240D1*
X27737Y45108D1*
X27904Y44942D1*
X34751Y42844D2*
X34436Y42986D1*
X34197Y43193D1*
X34022Y43457D1*
X33923Y43758D1*
X33907Y44074D1*
X33976Y44383D1*
X34124Y44662D1*
X34342Y44892D1*
X34612Y45057D1*
X34917Y45143D1*
X35233Y45145D1*
X35539Y45063D1*
X35812Y44903D1*
X36033Y44676D1*
X36185Y44399D1*
X36265Y43974D1*
X36261Y43944D1*
X38726Y41494D1*
X39032Y41412D1*
X39305Y41252D1*
X39526Y41025D1*
X39678Y40748D1*
X39757Y40322D1*
X39715Y40009D1*
X39591Y39718D1*
X39393Y39470D1*
X39138Y39284D1*
X38841Y39172D1*
X38526Y39143D1*
X38215Y39198D1*
X37929Y39335D1*
X37690Y39542D1*
X37514Y39806D1*
X37412Y40175D1*
X34760Y42834D1*
X24792Y39215D2*
X24668Y38924D1*
X24471Y38676D1*
X24215Y38490D1*
X23919Y38378D1*
X23604Y38349D1*
X23292Y38405D1*
X23006Y38541D1*
X22924Y38612D1*
X22549Y38660D1*
X22238Y38847D1*
X21681Y39402D1*
X18088Y39400D1*
X17886Y39331D1*
X17571Y39301D1*
X17260Y39357D1*
X16974Y39494D1*
X16735Y39701D1*
X16559Y39964D1*
X16460Y40265D1*
X16445Y40581D1*
X16513Y40890D1*
X16662Y41170D1*
X16879Y41400D1*
X17150Y41564D1*
X17454Y41650D1*
X17771Y41653D1*
X18077Y41571D1*
X18350Y41411D1*
X18508Y41248D1*
X22066Y41245D1*
X22378Y41191D1*
X22689Y41004D1*
X23119Y40575D1*
X23487Y40698D1*
X23803Y40700D1*
X24109Y40618D1*
X24382Y40458D1*
X24603Y40231D1*
X24755Y39954D1*
X24835Y39529D1*
X24792Y39215D1*
D19*
X5950Y23100D3*
X4040D3*
X7860D3*
D20*
X10950Y1700D3*
X950D3*
D21*
X19360Y1750D3*
D22*
X24810D3*
X30260D3*
D28*
X28892Y25717D3*
D29*
X21273D3*
D28*
X18097D3*
D29*
X10478D3*
D28*
X21273Y28258D3*
D29*
X28892D3*
D28*
X15557Y32702D3*
D29*
X7938D3*
D28*
X15557Y30480D3*
D29*
X7938D3*
D28*
X6032D3*
D29*
X-1587D3*
D28*
X6032Y32702D3*
D29*
X-1587D3*
D28*
X18097Y27940D3*
D29*
X10478D3*
D30*
X53340Y33020D3*
Y27940D3*
D31*
X39370Y25718D3*
D32*
Y28258D3*
Y30798D3*
Y33337D3*
X46990D3*
Y30798D3*
Y28258D3*
Y25718D3*
D36*
X2858Y43656D3*
D37*
Y38576D3*
Y41116D3*
D38*
X-7461Y44450D3*
D39*
Y38100D3*
G36*
X27261Y44632D2*
X27511Y44382D1*
Y43882D1*
X27261Y43632D1*
X25761D1*
X25511Y43882D1*
Y44382D1*
X25761Y44632D1*
X27261D1*
G37*
D40*
X26511Y42862D3*
Y41592D3*
D30*
X53340Y38100D3*
Y43180D3*
Y48260D3*
Y53340D3*
X-20320Y29210D3*
Y34290D3*
D41*
X-14605Y12700D3*
X47625D3*
D30*
X-20320Y39370D3*
Y44450D3*
M02*
