M48
METRIC,0000.00
T01C0.486
T02C0.559
T03C0.7
T04C0.8
T05C0.9
T06C1.0
T07C1.2
T08C1.5
T09C1.7
T10C8.5
%
T01
X+001937Y+001524
X+001619Y+001810
X+002350Y+002254
X+002730Y+002127
X+002730Y+001905
X+002730Y+001556
X+002508Y+000667
X+002350Y+000667
X+002286Y+000190
X+002286Y+000063
X+002286Y-000063
X+002413Y-000063
X+002540Y-000063
X+002667Y-000063
X+002921Y-000063
X+003048Y-000063
X+003175Y-000063
X+003302Y-000063
X+003302Y+000063
X+003302Y+000190
X+003302Y+000317
X+003302Y+000445
X+003175Y+000445
X+003048Y+000445
X+004191Y+001079
X+004159Y+001270
X+004191Y+001461
X+004286Y+001635
X+004413Y+001762
X+004572Y+001841
X+004762Y+001873
X+004953Y+001841
X+005112Y+001762
X+005239Y+001635
X+005334Y+001461
X+005366Y+001270
X+005334Y+001079
X+005239Y+000905
X+005112Y+000778
X+004953Y+000698
X+004762Y+000667
X+004572Y+000698
X+004413Y+000778
X+004286Y+000905
X+001461Y+000190
X+001397Y+000317
X+001270Y+000317
X+001143Y+000317
X+001016Y+000317
X+000889Y+000317
X+000762Y+000317
X+000699Y+000190
X+000762Y+000063
X+000889Y+000000
X+001016Y+000000
X+001143Y+000000
X+001270Y+000000
X+001397Y+000063
X+000445Y+000063
X+000445Y+000190
X+000445Y+000317
X+000317Y+000317
X+000190Y+000317
X+000063Y+000317
X-000063Y+000317
X-000190Y+000317
X-000254Y+000190
X-000254Y+000063
X-000190Y+000000
X-000063Y+000000
X+000063Y+000000
X+000190Y+000000
X+000317Y+000000
X-000984Y+000905
X-001111Y+000778
X-001270Y+000699
X-001461Y+000667
X-001651Y+000699
X-001810Y+000778
X-001937Y+000905
X-002032Y+001079
X-002064Y+001270
X-002032Y+001461
X-001937Y+001635
X-001810Y+001762
X-001651Y+001841
X-001461Y+001873
X-001270Y+001841
X-001111Y+001762
X-000984Y+001635
X-000889Y+001461
X-000857Y+001270
X-000889Y+001079
X+000762Y+002540
X+000825Y+003540
X+001762Y+004048
X+002365Y+003953
X+003032Y+003715
X+003508Y+004397
X+003858Y+004032
X+004318Y+004286
X+002048Y+004969
T02
X+002889Y+002572
X+002889Y+002826
X+002127Y+002826
X+002127Y+002572
X+001810Y+002572
X+001810Y+002794
X+001556Y+003048
X+001556Y+003270
X+001048Y+002794
X+001048Y+002572
X+000794Y+003048
X+000603Y+003048
X+000603Y+003270
X+000794Y+003270
X-000159Y+003270
X-000159Y+003048
T03
X+002651Y+004413
X+002651Y+004286
X+002651Y+004159
T04
X+000595Y+002310
X+000404Y+002310
X+000786Y+002310
X-002032Y+002921
X-002032Y+003429
X-002032Y+003937
X-002032Y+004445
X+005334Y+004318
X+005334Y+003810
X+005334Y+003302
X+005334Y+002794
X+005334Y+004826
X+005334Y+005334
T05
X+003937Y+002572
X+003937Y+002826
X+003937Y+003080
X+003937Y+003334
X+004699Y+003334
X+004699Y+003080
X+004699Y+002826
X+004699Y+002572
T06
X-000746Y+004445
X-000746Y+003810
T07
X+000286Y+004366
X+000286Y+004112
X+000286Y+003858
T08
X+001936Y+000175
X+002481Y+000175
X+003026Y+000175
T09
X+001295Y+000170G85X+000895Y+000170
X+000295Y+000170G85X-000105Y+000170
T10
X-001461Y+001270
X+004762Y+001270
T00
M30
